<svg xmlns="http://www.w3.org/2000/svg" width="1171" height="1443" baseProfile="full">
  <path fill="#fff" d="M0 0h1171v1443H0z"/>
  <path fill="#107C78" fill-rule="evenodd" stroke="#084442" stroke-linecap="round" stroke-linejoin="round" stroke-width="7" d="m45.4 594.4-3.8 16.2-3 13.3-2.2 10.4-1.5 7.5-.8 4.5-.5 3.5-.2 2.6v1.7l.2.8v1.3l-.4.5-.5.5c0 .3-.2.5-.3.7v1.6l.2 1v1.6l-.4.6-.5.5-1 5.2-1.4 10-2 14.5-2.6 19.2-2.1 17.9-2 16.5-1.5 15.1-1.2 13.8-1 17.5-.8 21.4-.5 25.2-.2 29 .1 26.3.5 23.5.9 20.7 1.2 18 1.3 16.5 1.4 15 1.4 13.5 1.6 12 1.7 12.4 2 13 2.3 13.2 2.4 13.8 2.9 14.1 3 14.5 3.5 14.9 3.8 15.2 3.4 13.6 3.1 11.9 2.9 10.2 2.5 8.5 3 9.8 3.8 11.3 4.4 12.6 5 14 5.6 14.9 6.3 15.7 6.8 16.7 7.5 17.5 7 15.7 6.4 14 5.8 12.3 5.2 10.5 6 11.5 7 12.6c2.5 4.6 5 9.2 7.7 13.7l8.4 14.8 7.4 12.3 6 9.9 5 7.4 3.8 5 3.4 4 3.1 3.2c1 .7 2 1.4 2.8 2.2l2.6 1.2 53.6.9 104.7.5 155.9.1 207-.2 154.4-1.2 101.7-2 49.1-2.8-3.5-3.8-4.5-4.2-5.5-4.6-6.5-5-7.5-5.5-6.6-5-5.7-4.5-4.9-4-4-3.5-5.3-5-6.6-6.2-8-7.6-9.2-9-9-9-8.8-9.2-8.5-9.2-8.2-9.2-8.5-9.9-8.8-10.5-9-11.1-9.2-11.8-10.4-13.8-11.5-16-12.6-18.2-13.8-20.2-12.4-18.7-11-17-9.6-15.3-8.2-13.8-9-16-10-18-10.6-20.3-11.5-22.5-9.5-19-7.5-15.4-5.5-11.8-3.5-8.2-3.4-7.5-3-6.6-3-5.8-2.8-5-3.7-3.4-4.8-1.7-5.7-.1-6.8 1.5-7.5 1.4-8.2 1.4-9 1.3-9.8 1.2-9.2 1-8.8.6-8.2.3h-7.8l-6.8-.2-5.9-.4-4.9-.5-4-.8-4.6-.7-5-.6-5.8-.5-6.2-.5-7-1-8-1.4-8.6-1.8-9.5-2.2-8.9-2.3-8-2.4-7.5-2.5-6.8-2.5-7.2-2.8-7.6-3.3-8-3.6-8.6-4-8.3-4.2-8.3-4.4-8.1-4.5-8-4.8-8.5-5.4-9-6.1-9.5-6.9-10-7.5-9.1-7.1-8.3-7-7.4-6.5-6.4-6.2-5.8-5.7-5-5.1-4.3-4.6-3.4-4-4.3-5.1-5-6.3-5.8-7.4-6.4-8.5-6.3-9.1-6-10c-2-3.4-3.8-7-5.8-10.5l-5.4-11.2-7.6-9.3-9.4-7.4-11.6-5.5-13.4-3.5-14-4-14.2-4.5-14.6-5-15-5.5-15-5.8-15.2-6-15.2-6.5L144 732l-16.9-7.7-18.5-8.6-20.1-9.5-21.8-10.5-16.4-8.2L39 682l-5.9-3.4-.5-1-.3-1.6-.3-2-.1-2.8V668l.1-2.6.3-1.9.4-1.1.5-.5c0-.3.2-.5.3-.7v-1.6l-.2-1v-1.1l.2-1.3.5-1.4.8-1.5 1-3.8 1.4-6 1.7-8.5 2-10.8 2-10.4 2.2-10.1 2.2-9.9 2.2-9.5 1.6-7 .9-4.8.1-2.4h-.5l-1.3 4-2 8.2Z"/>
  <path fill="#252F35" fill-rule="evenodd" stroke="#14191D" stroke-linecap="round" stroke-linejoin="round" stroke-width="7" d="m82.3 472.6-2.5 5.8-3.2 8.4-3.7 11-4.4 13.6-5 16.2-4.6 15.7-4 15.1L51 573l-3 14-2.6 11.8-2 9.6-1.4 7.5-.8 5.2-1 5.6-1.2 6-1.5 6.4-1.8 6.8-1.4 6.2L33 658l-.9 5.2-.5 4.8-.3 3.8v4.8l.2 1 5.8 3.5 11.2 6 16.8 8.5 22.2 11 22 10.6 22 10 21.7 9.8 21.4 9.2 19 7.9 16.4 6.5 13.8 5.1 11.2 3.8 12.7 3.8 14 3.9L277 781l16.8 4 13.9 3.1 11 2.3 8 1.4 5.3.5 6.4.2h7.5c2.9 0 5.8-.2 8.6-.3l9.8-.5 9.3-.9 8.9-1.4 8.4-1.8 8-2.2 7.3-2.3 6.4-2.4 5.8-2.5 5-2.5 5.3-2.9 5.4-3.4 5.8-3.8 6-4.2 7.3-5.6 8.6-6.9 10-8.1 11.2-9.5 10.5-8.4 9.8-7.3 9-6.1 8.2-5 8.1-4.4 8-4 8-3.2 7.7-2.8 6.8-2.2 5.9-1.8 4.9-1.2 4-.8 4.4-.6 4.7-.5 5.1-.4 5.5-.2h6l6.4.4 6.8.7 7.2 1 7.3 1.4 7.4 1.7 7.5 2.1 7.5 2.5 7.5 3 7.5 3.4 7.5 3.8 7.5 4.2 7.7 5 8 5.6 8.3 6.3 8.5 7 7.8 6.3 7.3 5.6 6.6 5 6 4.2 6 4 6.2 4 6.2 3.6 6.2 3.5 7 3.6 8 3.6 8.6 3.7 9.5 3.8 8.5 3.1 7.5 2.5 6.5 1.9 5.5 1.2 5.3 1 5 1 4.8.6 4.5.5 5.8.4 7 .3 8.5.1h9.8l8.5-.1 7.4-.3 6.2-.4 5-.5 5.1-.6 5.3-1 5.4-1 5.5-1.2 4.4-.9 3.4-.5 2.3-.1 1.2.2.4 1.5-.5 2.8-1.4 4-2.2 5.2-3 5.7-3.8 6.1-4.5 6.6-5.2 7-5.6 7-6 6.8-6.4 6.8-6.8 6.8-7.2 6.9-7.6 7-8 7-8.5 7.3-8.4 7-8.3 6.8-8.1 6.5-8 6.2-8.8 6.6-9.6 6.9-10.5 7.1-11.2 7.5-11 7-11 6.5-10.6 6-10.5 5.5-10 5-9.4 4.2-8.8 3.6-8.2 3-6.3 2.4-4.4 2-2.5 1.2-.5.8.3 1.7 1 2.6 1.8 3.5 2.5 4.5 2.7 5.5 3 6.4 3.3 7.3 3.5 8.2 4.6 10.3 6 12.4 7 14.5 8.2 16.5 7.5 14.7 6.8 13 6 11.3 5.2 9.5 6.5 11 7.6 12.8 8.8 14.4 10 16 10.6 16.4 11 16.7 11.8 17.2 12.2 17.5 12.2 16.7 12.1 16 12.1 15.3 12 14.5 12.2 14 12.4 13.6 12.5 13.2 13 12.9 10.5 10.4 8.4 8.1c2 2 4.1 4 6.2 5.8l4 3.5 4.9 4 5.7 4.5 6.6 5 7.5 5.5 6.5 5.1 5.5 4.6 4.5 4.2 3.5 3.8 3.4 2.8 3.3 1.9 3.1.9h3l2.6-.1 2.3-.3 1.8-.3 1.5-.5 1.4-.6 1-.6 1-.7.8-.8.5-1.2.2-1.6v-2l-.2-2.5-.9-3.4-1.5-4.3-2.1-5.1-2.8-6-3.6-6.6-4.5-7-5.4-7.8-6.2-8.2-8-10.2-9.6-12-11.3-13.8-13-15.8-11-13.5-9-11.2-7-9-5-6.8-5.2-7.2-5.4-7.8-5.5-8.2-5.8-8.8-6.2-9.8-6.6-11-7-12.2-7.5-13.2-6.5-11.9-5.4-10.5-4.3-9.1-3.2-7.8-3-8-3-8-2.6-8.3-2.5-8.5-2.3-9-2-9.2-1.8-9.6-1.5-10-1-10-.8-10-.4-10v-10l.3-9.3.5-8.5.7-7.7 1-7 1-6.3 1-5.5 1-4.7 1-4 1.4-4.9 2-5.7 2.2-6.6 2.8-7.5 3-7.5 3.2-7.4 3.5-7.3 3.8-7.2 4.8-8.3 5.9-9.2L895 919l8-11.2 9.6-12.5 11.3-13.8 12.9-15 14.5-16.2 13.4-15.3 12.4-14.4 11.3-13.5 10.2-12.5 9.6-12.1 8.9-12 8.1-11.5 7.5-11.2 6.7-10.3 5.7-9.4 4.9-8.5 4-7.5 3.6-6.9 3-6.4 2.8-5.8 2.2-5.2 2.3-5.8 2.4-6.4 2.5-7 2.5-7.5 2.2-7 2-6.8 1.8-6.4 1.5-6 1.3-5.9 1.3-5.7 1.1-5.6 1-5.5 1-6.3.8-7 .8-7.8.8-8.5.5-7.7.4-7 .2-6.3v-5.5l-.2-6-.4-6.8-.5-7.4-.8-8-1.3-9.1-2-10.3-2.7-11.4-3.2-12.4-6.4-11.3-9.5-10-12.6-8.8-15.8-7.4-14.3-6.6-12.9-5.6-11.4-4.7-10-3.8-10.5-3.5-11-3.4-11.5-3.2-12-3-12.2-2.6-12.4-2.3-12.5-1.9-12.8-1.4-12.8-1.2-12.9-.7-12.9-.4h-13l-11.8.2-10.5.4-9.2.5-8 .8-13 2-18 3-23 4.4-28 5.4-24 4.6-20 3.6c-5.3 1-10.7 1.8-16 2.7l-12 1.8-10.6 1.4-9 1.1-7.8.9-6.2.4-6.3.4-6.4.3-6.5.1h-6.5l-7.7-.3-9-.4-10.3-.8-11.5-1-12-1.3-12.6-1.6-13.2-2-13.8-2.2-12.6-2.2-11.5-2.1-10.4-2.1-9.2-2-11.3-2.2-13.4-2.4-15.4-2.5-17.6-2.8-15.8-2.2-14-1.8-12.5-1.2-10.8-.8-10-.5-9.4-.2H316l-8 .2-7.4.4-7 .5-6.2.6-5.8.8-7 1.2-8.4 1.6-9.7 2-11 2.6-12 3-13.2 3.8-14.2 4.4-15.2 5-15.2 5.2-15 5.4-14.8 5.5-14.8 5.8-12.5 4.6-10.2 3.5-8 2.4-5.8 1.2-5 2.4-4 3.5ZM293 522.1l2-1.2 2.2-1.2 2.4-1.1 2.5-1.1 2.8-1 3-.9 3-.7 3.4-.6 3.4-.5 3.7-.4 3.7-.3 3.9-.1h4l4.1.1 4.3.3 4.4.4 4.4.5 4 .5 3.6.6 3 .7 2.4.8 2.8 1 3 1.2 3.3 1.5 3.4 1.8 3.4 1.8 3 1.9 3 1.9 2.8 2 3.1 2.8 3.5 3.5 3.9 4.2 4.2 5 3.5 4.2 2.6 3.4 1.8 2.5 1 1.8 1.1 2.4 1.3 3.1 1.4 3.9 1.4 4.5 1.2 4.8 1 5 .5 5.5.2 5.8v9.4l-.4 3.7-.4 3-.6 2.7-.6 2.4-.7 2-.8 1.8-1.2 2.1-1.6 2.5-2 2.9-2.6 3.2-2.6 3.1-3 3-3 3-3.2 2.7-3.1 2.4-3 2.1-3 1.9-2.7 1.5-3 1.4-3.2 1.4-3.5 1.3-3.8 1.2-3.8 1-3.9 1-3.9.6-4 .5-4.3.4h-9.2l-5-.2-5-.5-4.8-.8-4.8-1-4.8-1.2-4.2-1.3-3.8-1.2-3.2-1.3-2.8-1.2-2.8-1.5-2.9-1.6-2.9-1.8-3-2-3-2.3-3-2.5-3-2.7-3-3-2.9-3.3-2.7-3.6-2.6-4-2.6-4.2-2-4.2-1.8-4.1-1.4-4.1-1-4-.7-4.8-.4-5.5v-6.2l.2-7 .7-6.5 1.1-6 1.6-5.5 2-5 2-4.4 1.8-3.7 1.8-3.1 1.8-2.5 2-2.6 2.4-2.6 2.7-2.7 3-2.8 2.8-2.4 2.4-2Zm573.5-3.9 3 1.5 3.2 2 3.4 2.2 3.5 2.6 3.8 3 3.3 3 2.9 2.8 2.4 2.8 2 2.8 1.9 3 1.7 3 1.6 3.4 1.5 3.5 1.2 4.8 1 6.3.5 7.6.2 9v7.7l-.4 6.4-.7 5-1 3.8-1.2 3.5-1.4 3.4-1.5 3.2-1.8 3-2.5 3.5-3.4 4-4.2 4.5-5 5-5 4.4-5 3.7-5 3.1-5 2.5-4.8 2.2-4.5 1.7-4.2 1.4-4 1-5 .7-6.2.4h-7.2l-8.2-.2-7.2-.5-6.1-.8-5.1-1-4-1.2-4-1.5-4-1.8-4-2-4-2.2-3.9-2.5-3.7-2.8-3.6-3-3.5-3.2-3-2.8-2.2-2.4-1.6-2-1-1.5-1.2-2.4-1.4-3.4-1.5-4.3-1.8-5.2-1.3-5-.9-4.6-.4-4.3v-4l.2-3.8.4-3.6.5-3.5.8-3.2 1.4-4 2-5 2.6-5.6 3.2-6.5 2.9-5.4 2.5-4.3 2.1-3.1 1.8-2 2-2 2.2-2.2 2.5-2.2 2.8-2.2 3.1-2.3 3.5-2.2 3.9-2.3 4.2-2.2 4-2 4-1.8 3.6-1.5 3.5-1.2 3.5-1.1 3.5-1 3.5-1 3.5-.7 4-.5 4.2-.4 4.6-.2h5l4.8.3 4.5.5 4.2.7 4 1 3.8 1.1 3.5 1.3Z"/>
  <path fill="#075187" fill-rule="evenodd" stroke="#032C4A" stroke-linecap="round" stroke-linejoin="round" stroke-width="7" d="M42.9 45.3 40 52.8l-2.5 7.5-2.2 7.6-2 7.7-1.8 7.8-1.5 7.2-1.2 6.6-1 6-.8 5.5-.7 6-.6 6.5-.6 7-.4 7.6-.4 8.8L24 155l-.1 11.6v13l.1 11.9.3 10.7.4 9.7.4 8.4 1 10.2 1.4 12 1.8 13.5 2.2 15.2L34 286l2.6 14.2 2.8 13.8 3 13.2 3 12.8 3.2 12.4 3.2 12 3.2 11.4 4 13.2 5 14.7 5.7 16.4 6.5 18 6.3 13.2 6 8.4 6 3.5 5.8-1.2 8-2.4 10.2-3.5 12.5-4.6 14.8-5.8 14.8-5.5 15-5.4 15.2-5.2 15.2-5 14.2-4.4 13.1-3.7 12.1-3.1 11-2.6 9.7-2 8.4-1.6 7-1.2 5.8-.8 6.3-.6 6.9-.5 7.4-.4 8-.2h9.3l10.4.4 11.8.7 13 1L374 407l14 1.7 14.8 2.1 15.2 2.6 15.5 2.6 15.8 3 16 3 16.2 3.2 15 2.8 13.6 2.4 12.3 2 11 1.4 10 1.3 9.2 1 8.2.8 7.2.4 7 .4 7 .3 6.6.1h6.5l7.5-.3 8.4-.4 9.3-.8 10.2-1L643 434l14.6-2 16.8-2.8 19-3.2 16.4-2.9 13.7-2.5 11.1-2.1 8.5-1.8 6.6-1.4 4.6-1.1 2.7-.9.8-.4.7-1.4.6-2 .5-3 .5-3.8 1.3-5.5 2-7.4 2.8-9.2 3.5-11 3.1-12.1 3-13.3 2.5-14.4 2.2-15.4 1.7-16.4 1.1-17.3.6-18.1v-19l-.3-15.3-.6-11.4-1-7.8-1.2-4-1.3-3.5-1.2-3-1.3-2.5-1.2-2-3.8-2.4-6.2-2.7-8.8-3.2-11.2-3.4-11.5-3.4-11.8-3-12-3-12.2-2.8-11.8-2.4-11.4-2.1-11-1.8-10.5-1.6-13-1.1-15.5-1-18-.5-20.5-.2h-33.5l-13 .3-10.5.6-11.3.9-12 1.4-13 1.8-13.8 2.2-14.2 2.8-14.6 3.2-15 3.8-15.6 4.2-12 2.8-8.8 1.4H394l-2-1.6-2.7-2.3-3.4-3.3-4-4.1-4.8-5-5.1-5.1-5.5-5.3-5.9-5.3-6.2-5.6-6.6-5.6-7-6-7.4-6-7.8-6.2-7.9-6.2-8-6.1-8-6.1-8.3-6-9.7-6.6-11.1-7.3-12.6-7.8-14-8.5-13.3-7.7-12.4-7-11.8-6-11-5.2-11-5-11.2-4.6-11.2-4.3-11.2-4-9.8-3.3L135 19l-6.8-2-5.2-1-5.2-1-5-.8-4.8-.5-4.8-.2-5.2-.2h-5.6l-6 .2-6.5.2-5.5.5-4.5.8-3.5 1-2.5 1.2L61 19l-3 2.5-3 3.1-3.2 3.8-3.1 4.7-3 5.6Z"/>
  <path fill="#107C78" fill-rule="evenodd" stroke="#084442" stroke-linecap="round" stroke-linejoin="round" stroke-width="7" d="M1101.9 17.1 1099 16l-4.6-1-6.5-.6-8.4-.3h-10.2l-9.9.6-9.5 1c-3 .7-6 1.2-9.1 1.8l-8.8 2.2c-3 1-6.1 1.8-9.2 2.7l-9.6 3.1-10 3.6-10.5 4-11.6 5-12.6 5.8-13.7 6.8-14.8 7.8-14.3 8-13.9 8.2-13.4 8.5-13 8.8-12.2 8.5-11.4 8.2-10.5 8-9.8 7.8-9.9 8.3-10 8.9-10 9.4-10.3 10-8.4 8.4-6.5 7-4.6 5.2-2.8 3.8-1.6 4-.5 4.4.6 4.7 1.8 5 1.4 4.8 1.1 4.4.9 4.3.5 4 .3 6 .3 8.2.1 10.2v12.2l-.2 11.3-.4 10.2-.5 9.3-.8 8.2-1 9-1.2 9.6-1.5 10.3-1.8 11-2.3 11.6-2.9 12L768 373l-4 13.2-3 10.4-1.8 7.5-.8 4.6.2 1.8 2.1 1h4l6-.6 7.7-1.6 7.8-1.3 7.9-1 7.9-1 8-.8 9.3-.5 10.5-.4 11.7-.2h13l11.8.2 10.5.4 9.2.5 8 .8 7.8.9 7.6 1 7.5 1c2.4.5 4.8 1 7.2 1.3l7.8 1.6 8.4 1.9 9 2.1 9.5 2.6 9.6 2.8 9.7 3 9.9 3.5 10 3.8 11.3 4.6 12.5 5.5 13.7 6.4 15 7.2 11.4 5.5 8 3.6 4.2 1.8h.8l.7-.2.8-.4.7-.5.8-.8 1-1.4 1.4-2 1.7-2.6 2-3.2 2-3.6 2-4 2-4.4 2-4.8 2.4-6.2 2.7-7.8 3.2-9.2 3.5-10.8 3.2-10.4 3-10 2.8-9.6 2.5-9.2 2.5-10.3 2.6-11.2 2.7-12.3 2.8-13.2 2.6-14 2.5-14.8 2.4-15.5 2.2-16.2 1.7-13.5 1.1-10.8.6-8V220l.1-5 .3-4.8.3-4.5.5-4.2.4-5.8.3-7.2.1-8.8v-10.2l-.3-11.2-.6-12.1-1-13.1-1.2-14-1.3-12.1-1.2-10.3-1.3-8.3-1.2-6.5-1.4-6.5-1.5-6.4-1.6-6.3-1.8-6.2-1.7-5.7-1.8-5.1-1.7-4.6-1.8-4-2-3.8-2.2-3.5-2.5-3.2-2.8-3-2.7-2.6-2.8-2Z"/>
  <path fill="#F5F5F5" fill-rule="evenodd" stroke="#868686" stroke-linecap="round" stroke-linejoin="round" stroke-width="7" d="m303.4 800.9 4.2 9.2 4.4 8.6 4.5 8 4.6 7.4 4.8 6.8 5.1 6.9 5.5 7 5.9 7a299503.2 299503.2 0 0 0 12 13.8l5.4 6 5 5.1 4.4 4.5 5.7 5.3 7 6 8 6.8 9.2 7.5 8.4 6.5 7.5 5.6 6.6 4.7 5.8 3.8 6 3.7 6.2 3.8 6.5 3.7 6.8 3.8 8.2 4.1 9.6 4.5 11 4.9 12.6 5.2 11.8 4.6 11.3 3.9 10.6 3.1 10 2.5 10.7 2.3 11.4 2 12 1.8 12.8 1.5 11.2 1 9.8.6 8.2.2 6.8-.2 6-.4 5.2-.5 4.5-.6 3.8-.8 4.2-.7 4.8-.6 5.2-.5 5.8-.5 5.8-.7 5.9-1 5.9-1 6-1.2 6.9-1.9 7.7-2.5 8.6-3.1 9.5-3.8 10.5-4.7 11.5-5.6 12.5-6.5 13.5-7.5 12.5-7.3 11.4-7 10.3-6.8 9.2-6.5 10.6-7.9 12-9.4 13.4-10.8 14.8-12.2 12.8-11 10.9-9.6 8.9-8.3 7-7 6-6.3 5.2-5.5 4.2-4.7 3.2-4 3.1-4.1 3-4.3 3-4.4 2.7-4.5 2.4-4.1 2-4 1.6-3.5 1.2-3.2.9-2.6.5-2 .1-1.4-.2-.8-2.5-.1-4.8.5-7 1.1-9.2 1.8-9.7 1.4-10.1 1-10.6.6-11 .2H855l-6.5-.4-5-.5-5.2-.6-5.4-1-5.5-1-5.8-1.2-6.2-1.6-6.6-2-7-2.4-7.5-2.8-7.7-3.1-7.7-3.5-7.9-3.9-8-4.2-7.6-4.3-7.3-4.4-6.9-4.5-6.5-4.5-7-5.1-7.6-6-8.2-6.5-8.8-7.2-8-6.3-7.4-5.4-6.7-4.5-6-3.5-6.1-3.2-6.3-3-6.4-2.8-6.5-2.5-6.9-2.2-7.4-2-7.8-1.8-8.2-1.5-8-1-8-.6-7.6-.2-7.5.2-6.8.5-6 .6-5.3.8-4.5 1-4.8 1.3-5.3 1.6-5.6 2-6 2.2-6.4 2.8-6.7 3.2-7.1 3.8-7.5 4.2-9 6-10.6 7.8-12 9.5-13.4 11.2-11 9-8.6 7-6 4.6-3.4 2.5-4 2.6-4.2 2.6c-1.5 1-3 1.8-4.6 2.7l-5 2.8-4.9 2.5-4.7 2.2-4.6 2-4.6 1.8-4.8 1.6-5 1.5-5.5 1.4-5.8 1.2-5.9 1-6 1-6 .6-6.3.5-6 .4H343l-5.2-.2-5.8-.6-6.4-.9-7-1.1-7.4-1.5-5.9-1.1-4-.6-2.5-.2-.8.2.5 2.5 1.8 4.8Zm226.2-69.5 7.8-3.8 7-3.1 6-2.5 5.4-1.9 4.5-1.2 4.7-1.1 5-1 5.3-1 5.5-.7 6-.4 6.6-.1 7.2.1 7.8.5 7.7 1 7.6 1.4 7.5 1.8 7.5 2.2 7 2.5 6.5 2.6 6 2.8 5.5 3 4.7 2.8 4 2.5 3 2.2 2.2 2 2 2 1.6 1.8 1.3 1.8 1 1.8.9 2 .7 2.2.6 2.5.5 2.8.4 3.9v11l-.2 7.3-.5 6.5-.8 5.6-1 4.8-1.2 4-1.6 4-1.9 4.2-2.1 4.2-2.5 4.2-3 4.4-3.5 4.5-4 4.6-4.5 4.8-4.2 4.1-3.7 3.5-3.4 2.9-3 2.2-3 2-3 2-3 1.6-3 1.5-3 1.4-3 1.3-3 1.1-3 1-3.7 1-4.4.8-5 .8-5.8.8-5.7.4-5.8.1-5.7-.1-5.8-.5-5.4-.7-5-1-4.6-1-4.2-1.2-4.3-1.6-4.4-1.9-4.5-2.1-4.5-2.5-4.6-3.1-4.7-3.6-4.9-4.2-5-4.8-4.4-4.5-3.7-4.2-3.1-4-2.5-3.8-2.4-4-2-4-2-4.4-1.8-4.5-1.5-4.2-1.2-4-1-3.8-.8-3.5-.5-3.7-.4-4-.2-4.3v-4.5l.3-4 .6-3.8 1-3.4 1.2-3 2-3.3 2.8-3.5 3.5-3.7 4.2-4 5.1-4 6-3.8Z"/>
  <path fill="#252F35" fill-rule="evenodd" stroke="#14191D" stroke-linecap="round" stroke-linejoin="round" stroke-width="7" d="m519.6 736.5-4.2 3-3.8 3-3.4 3-3 3-2.4 3-2.1 2.7-1.6 2.4-1.2 2-.8 1.8-.5 2.7-.4 3.6-.2 4.5v5.5l.3 5.4.6 5 1 5 1.2 4.8 1.5 4.7 1.8 4.6 2 4.5 2.2 4.5 2.8 4.7 3.2 4.7 3.8 4.9 4.2 5 4.5 4.6 4.6 4.3 4.8 3.9 5 3.5 4.9 3 4.7 2.6 4.6 2.2 4.5 1.8 4.5 1.5 4.4 1.2 4.3 1 4.2.8 4.5.5 4.6.4 4.8.2h5l5.1-.3 5.3-.6 5.4-1 5.5-1.2 5.3-1.5 5-1.8 5-2 4.8-2.2 4.1-2.1 3.5-2 2.9-2c.7-.5 1.5-1 2.2-1.7 1-.7 1.8-1.5 2.7-2.3l3.1-2.9 3.6-3.4 4-4 3.8-4.1 3.5-4.3 3.2-4.4 3-4.5 2.6-4.1 2-4 1.8-3.5 1.2-3.2 1-3.2 1-3.1.6-3.1.5-3 .4-4.2v-11.9l-.2-7.8-.5-6.4-.6-5-.8-3.6-1-2.2-1.1-2-1.3-2-1.4-1.6-1.5-1.5-2.1-1.9-3-2-3.5-2.5-4.2-2.8-4-2.4-3.8-2.1-3.5-1.9-3.2-1.5-4-1.5-4.6-1.6-5.3-1.7-6-1.8-5.3-1.4-4.6-1.1-4-.9-3.2-.5c-1.4 0-2.7-.2-4-.3l-4.8-.3-5.5-.1h-6.2l-6.5.4-6.8.7-7 1.1-7.2 1.5-7.3 2-7.2 2.2-7.3 2.6-7.2 3-6.5 3-5.8 3Z"/>
  <path fill="#F5F5F5" fill-rule="evenodd" stroke="#868686" stroke-linecap="round" stroke-linejoin="round" stroke-width="7" d="m287.6 526.6-4.2 3.8-3.9 4-3.5 4.2-3.1 4.5-2.8 4.8-2.3 4.5-1.9 4.2-1.4 4-1 3.8-.7 4.7-.4 5.8v6.7l.2 7.8.5 6.6.8 5.5 1 4.4 1.2 3.2 1.8 3.6 2.4 4 3 4.4 3.4 4.8 3.7 4.3 3.7 3.9 3.9 3.4 4 3 3.6 2.6 3.3 2 2.9 1.8 2.4 1.2 2.9 1.3 3 1.2 3.5 1.3 3.8 1.2 3.7 1 3.6 1 3.6.6 3.4.5 3.7.4 4 .3 4 .1h4.2l4.3-.2 4.2-.4 4.3-.5 4.2-.8 4.5-1.1 4.6-1.5 4.8-1.9 5-2.2 4.3-2 3.4-2 2.8-1.6 2-1.5 2.3-2 2.6-2.5 3-3 3.2-3.5 2.8-3.2 2.2-2.7 1.8-2.4 1.2-2 1.1-2.3 1-2.6 1-3 .7-3.2.5-3.6.4-4 .2-4.4V592l-.2-4.5-.4-4.4-.5-4.2-.8-4-1-3.8-1-3.6-1.4-3.5-1.4-3.2-1.7-3.3-2-3.2-2-3.3-2.2-3.2-2.9-3.5-3.5-3.8-4.1-4-4.8-4.2-4.4-3.6-4-3-3.6-2.4-3.2-1.8-3.2-1.5-3.1-1.4-3.1-1.2-3-1-3.2-.9-3.4-.7-3.5-.6-3.8-.5-4.2-.4-4.8-.3-5.2-.1h-5.8l-5 .1-4.4.3-3.7.4-3 .5-3.1.7-3.3 1-3.4 1.3-3.4 1.5-3.7 2-4 2.6Zm567.5-12.5L850 513l-4.8-1-4.2-.6c-1.3 0-2.5-.2-3.8-.3H834l-3.6.3-3.9.4-4.1.8-4.5 1-4.3 1-4 1.2-3.8 1.2-3.5 1.2-3.4 1.4-3.4 1.5-3.3 1.6-3.2 1.8-3.2 1.9-3.1 2-3.1 2-3 2.3-2.8 2.3-2.6 2.4-2.5 2.5-2.2 2.5-2.3 2.9-2.4 3.4-2.5 3.8-2.5 4.2-2.1 4-2 4-1.5 3.6-1.2 3.5-1 4.3-.8 5-.5 5.8-.2 6.5.2 6 .6 5.5 1 5 1.5 4.5 2.2 4.5 2.7 4.5 3.4 4.5 4 4.5 3.6 3.7 3 3 2.8 2.3 2.2 1.5 3 1.6 3.8 2 4.5 2 5.2 2.2 5.1 1.9 5 1.5 5 1.1 4.7.8 4.3.5 3.9.4 3.4.2h3l3.3-.2 3.6-.4 4-.5 4.2-.8 4-.9 4-1 3.6-1c1.2-.5 2.4-1 3.5-1.3l3.6-1.5 3.6-1.8 3.7-2 3.8-2.2c1.2-1 2.5-1.8 3.8-2.7l3.9-3.1 3.9-3.6 4-4 3.6-4.1 3.3-4.3 2.9-4.4 2.5-4.5 2-3.8 1.5-3.3 1-2.6.5-2 .4-2.7.4-3.4.3-4 .2-4.8v-9.9l-.4-5-.5-5.3-.6-4.7-1-4.1-1-3.6-1.2-3-1.6-3.1-2-3.3-2.4-3.4-2.8-3.5-2.7-3.1-2.8-3-2.7-2.5-2.8-2.2-2.9-2.1-3-2-3-2c-1.2-.5-2.2-1-3.3-1.7l-4-1.7-4.2-1.5Z"/>
</svg>