<?xml version="1.0" encoding="utf-8" ?>
<svg baseProfile="full" height="1443" version="1.1" width="1171" xmlns="http://www.w3.org/2000/svg" xmlns:ev="http://www.w3.org/2001/xml-events" xmlns:xlink="http://www.w3.org/1999/xlink"><defs /><rect fill="#ffffff" height="1443" width="1171" x="0" y="0" /><path d="M 45.375 594.375 C 44.125 599.792 42.875 605.208 41.625 610.625 C 40.625 615.062 39.625 619.500 38.625 623.938 C 37.875 627.396 37.125 630.854 36.375 634.312 C 35.875 636.792 35.375 639.271 34.875 641.750 C 34.625 643.250 34.375 644.750 34.125 646.250 C 33.958 647.438 33.792 648.625 33.625 649.812 C 33.542 650.688 33.458 651.562 33.375 652.438 C 33.375 653.000 33.375 653.562 33.375 654.125 C 33.458 654.375 33.542 654.625 33.625 654.875 C 33.646 655.104 33.667 655.333 33.688 655.562 C 33.646 655.771 33.604 655.979 33.562 656.188 C 33.458 656.375 33.354 656.562 33.250 656.750 C 33.083 656.917 32.917 657.083 32.750 657.250 C 32.646 657.458 32.542 657.667 32.438 657.875 C 32.396 658.125 32.354 658.375 32.312 658.625 C 32.333 658.917 32.354 659.208 32.375 659.500 C 32.458 659.833 32.542 660.167 32.625 660.500 C 32.646 660.792 32.667 661.083 32.688 661.375 C 32.646 661.625 32.604 661.875 32.562 662.125 C 32.458 662.333 32.354 662.542 32.250 662.750 C 32.083 662.917 31.917 663.083 31.750 663.250 C 31.417 664.979 31.083 666.708 30.750 668.438 C 30.250 671.729 29.750 675.021 29.250 678.312 C 28.583 683.167 27.917 688.021 27.250 692.875 C 26.417 699.292 25.583 705.708 24.750 712.125 C 24.021 718.083 23.292 724.042 22.562 730.000 C 21.938 735.500 21.312 741.000 20.688 746.500 C 20.167 751.542 19.646 756.583 19.125 761.625 C 18.708 766.208 18.292 770.792 17.875 775.375 C 17.542 781.229 17.208 787.083 16.875 792.938 C 16.625 800.062 16.375 807.188 16.125 814.312 C 15.958 822.708 15.792 831.104 15.625 839.500 C 15.542 849.167 15.458 858.833 15.375 868.500 C 15.417 877.250 15.458 886.000 15.500 894.750 C 15.667 902.583 15.833 910.417 16.000 918.250 C 16.292 925.167 16.583 932.083 16.875 939.000 C 17.292 945.000 17.708 951.000 18.125 957.000 C 18.562 962.500 19.000 968.000 19.438 973.500 C 19.896 978.500 20.354 983.500 20.812 988.500 C 21.292 993.000 21.771 997.500 22.250 1002.000 C 22.750 1006.000 23.250 1010.000 23.750 1014.000 C 24.333 1018.146 24.917 1022.292 25.500 1026.438 C 26.167 1030.729 26.833 1035.021 27.500 1039.312 C 28.250 1043.750 29.000 1048.188 29.750 1052.625 C 30.583 1057.208 31.417 1061.792 32.250 1066.375 C 33.188 1071.083 34.125 1075.792 35.062 1080.500 C 36.104 1085.333 37.146 1090.167 38.188 1095.000 C 39.333 1099.958 40.479 1104.917 41.625 1109.875 C 42.875 1114.958 44.125 1120.042 45.375 1125.125 C 46.521 1129.646 47.667 1134.167 48.812 1138.688 C 49.854 1142.646 50.896 1146.604 51.938 1150.562 C 52.875 1153.958 53.812 1157.354 54.750 1160.750 C 55.583 1163.583 56.417 1166.417 57.250 1169.250 C 58.292 1172.542 59.333 1175.833 60.375 1179.125 C 61.625 1182.875 62.875 1186.625 64.125 1190.375 C 65.583 1194.583 67.042 1198.792 68.500 1203.000 C 70.167 1207.667 71.833 1212.333 73.500 1217.000 C 75.375 1221.958 77.250 1226.917 79.125 1231.875 C 81.208 1237.125 83.292 1242.375 85.375 1247.625 C 87.667 1253.167 89.958 1258.708 92.250 1264.250 C 94.750 1270.083 97.250 1275.917 99.750 1281.750 C 102.062 1287.000 104.375 1292.250 106.688 1297.500 C 108.812 1302.167 110.938 1306.833 113.062 1311.500 C 115.000 1315.583 116.938 1319.667 118.875 1323.750 C 120.625 1327.250 122.375 1330.750 124.125 1334.250 C 126.146 1338.104 128.167 1341.958 130.188 1345.812 C 132.479 1350.021 134.771 1354.229 137.062 1358.438 C 139.625 1363.000 142.188 1367.562 144.750 1372.125 C 147.583 1377.042 150.417 1381.958 153.250 1386.875 C 155.688 1390.979 158.125 1395.083 160.562 1399.188 C 162.604 1402.479 164.646 1405.771 166.688 1409.062 C 168.333 1411.542 169.979 1414.021 171.625 1416.500 C 172.875 1418.167 174.125 1419.833 175.375 1421.500 C 176.521 1422.854 177.667 1424.208 178.812 1425.562 C 179.854 1426.604 180.896 1427.646 181.938 1428.688 C 182.875 1429.417 183.812 1430.146 184.750 1430.875 C 185.583 1431.292 186.417 1431.708 187.250 1432.125 C 205.125 1432.417 223.000 1432.708 240.875 1433.000 C 275.792 1433.167 310.708 1433.333 345.625 1433.500 C 397.583 1433.542 449.542 1433.583 501.500 1433.625 C 570.500 1433.542 639.500 1433.458 708.500 1433.375 C 759.958 1433.000 811.417 1432.625 862.875 1432.250 C 896.792 1431.583 930.708 1430.917 964.625 1430.250 C 981.000 1429.292 997.375 1428.333 1013.750 1427.375 C 1012.583 1426.125 1011.417 1424.875 1010.250 1423.625 C 1008.750 1422.229 1007.250 1420.833 1005.750 1419.438 C 1003.917 1417.896 1002.083 1416.354 1000.250 1414.812 C 998.083 1413.125 995.917 1411.438 993.750 1409.750 C 991.250 1407.917 988.750 1406.083 986.250 1404.250 C 984.042 1402.583 981.833 1400.917 979.625 1399.250 C 977.708 1397.750 975.792 1396.250 973.875 1394.750 C 972.250 1393.417 970.625 1392.083 969.000 1390.750 C 967.667 1389.583 966.333 1388.417 965.000 1387.250 C 963.229 1385.625 961.458 1384.000 959.688 1382.375 C 957.479 1380.292 955.271 1378.208 953.062 1376.125 C 950.417 1373.583 947.771 1371.042 945.125 1368.500 C 942.042 1365.500 938.958 1362.500 935.875 1359.500 C 932.875 1356.479 929.875 1353.458 926.875 1350.438 C 923.958 1347.396 921.042 1344.354 918.125 1341.312 C 915.292 1338.250 912.458 1335.188 909.625 1332.125 C 906.875 1329.042 904.125 1325.958 901.375 1322.875 C 898.542 1319.583 895.708 1316.292 892.875 1313.000 C 889.958 1309.500 887.042 1306.000 884.125 1302.500 C 881.125 1298.792 878.125 1295.083 875.125 1291.375 C 872.042 1287.458 868.958 1283.542 865.875 1279.625 C 862.417 1275.000 858.958 1270.375 855.500 1265.750 C 851.667 1260.417 847.833 1255.083 844.000 1249.750 C 839.792 1243.708 835.583 1237.667 831.375 1231.625 C 826.792 1224.875 822.208 1218.125 817.625 1211.375 C 813.500 1205.167 809.375 1198.958 805.250 1192.750 C 801.583 1187.083 797.917 1181.417 794.250 1175.750 C 791.042 1170.625 787.833 1165.500 784.625 1160.375 C 781.875 1155.792 779.125 1151.208 776.375 1146.625 C 773.354 1141.312 770.333 1136.000 767.312 1130.688 C 764.021 1124.646 760.729 1118.604 757.438 1112.562 C 753.875 1105.792 750.312 1099.021 746.750 1092.250 C 742.917 1084.750 739.083 1077.250 735.250 1069.750 C 732.083 1063.438 728.917 1057.125 725.750 1050.812 C 723.250 1045.688 720.750 1040.562 718.250 1035.438 C 716.417 1031.500 714.583 1027.562 712.750 1023.625 C 711.583 1020.875 710.417 1018.125 709.250 1015.375 C 708.146 1012.896 707.042 1010.417 705.938 1007.938 C 704.896 1005.729 703.854 1003.521 702.812 1001.312 C 701.833 999.375 700.854 997.438 699.875 995.500 C 698.958 993.833 698.042 992.167 697.125 990.500 C 695.875 989.375 694.625 988.250 693.375 987.125 C 691.792 986.542 690.208 985.958 688.625 985.375 C 686.708 985.333 684.792 985.292 682.875 985.250 C 680.625 985.750 678.375 986.250 676.125 986.750 C 673.625 987.229 671.125 987.708 668.625 988.188 C 665.875 988.646 663.125 989.104 660.375 989.562 C 657.375 990.000 654.375 990.438 651.375 990.875 C 648.125 991.292 644.875 991.708 641.625 992.125 C 638.542 992.438 635.458 992.750 632.375 993.062 C 629.458 993.271 626.542 993.479 623.625 993.688 C 620.875 993.792 618.125 993.896 615.375 994.000 C 612.792 994.000 610.208 994.000 607.625 994.000 C 605.354 993.938 603.083 993.875 600.812 993.812 C 598.854 993.688 596.896 993.562 594.938 993.438 C 593.292 993.250 591.646 993.062 590.000 992.875 C 588.667 992.625 587.333 992.375 586.000 992.125 C 584.479 991.896 582.958 991.667 581.438 991.438 C 579.729 991.229 578.021 991.021 576.312 990.812 C 574.417 990.625 572.521 990.438 570.625 990.250 C 568.542 990.083 566.458 989.917 564.375 989.750 C 562.021 989.438 559.667 989.125 557.312 988.812 C 554.688 988.354 552.062 987.896 549.438 987.438 C 546.542 986.833 543.646 986.229 540.750 985.625 C 537.583 984.875 534.417 984.125 531.250 983.375 C 528.312 982.604 525.375 981.833 522.438 981.062 C 519.729 980.271 517.021 979.479 514.312 978.688 C 511.833 977.875 509.354 977.062 506.875 976.250 C 504.625 975.417 502.375 974.583 500.125 973.750 C 497.729 972.792 495.333 971.833 492.938 970.875 C 490.396 969.792 487.854 968.708 485.312 967.625 C 482.625 966.417 479.938 965.208 477.250 964.000 C 474.417 962.667 471.583 961.333 468.750 960.000 C 465.958 958.604 463.167 957.208 460.375 955.812 C 457.625 954.354 454.875 952.896 452.125 951.438 C 449.417 949.917 446.708 948.396 444.000 946.875 C 441.333 945.292 438.667 943.708 436.000 942.125 C 433.167 940.312 430.333 938.500 427.500 936.688 C 424.500 934.646 421.500 932.604 418.500 930.562 C 415.333 928.292 412.167 926.021 409.000 923.750 C 405.667 921.250 402.333 918.750 399.000 916.250 C 395.958 913.854 392.917 911.458 389.875 909.062 C 387.125 906.771 384.375 904.479 381.625 902.188 C 379.167 900.000 376.708 897.812 374.250 895.625 C 372.083 893.542 369.917 891.458 367.750 889.375 C 365.833 887.479 363.917 885.583 362.000 883.688 C 360.333 881.979 358.667 880.271 357.000 878.562 C 355.583 877.042 354.167 875.521 352.750 874.000 C 351.583 872.667 350.417 871.333 349.250 870.000 C 347.833 868.292 346.417 866.583 345.000 864.875 C 343.333 862.792 341.667 860.708 340.000 858.625 C 338.083 856.167 336.167 853.708 334.250 851.250 C 332.083 848.417 329.917 845.583 327.750 842.750 C 325.667 839.688 323.583 836.625 321.500 833.562 C 319.500 830.271 317.500 826.979 315.500 823.688 C 313.583 820.167 311.667 816.646 309.750 813.125 C 307.917 809.375 306.083 805.625 304.250 801.875 C 301.750 798.771 299.250 795.667 296.750 792.562 C 293.583 790.104 290.417 787.646 287.250 785.188 C 283.417 783.375 279.583 781.562 275.750 779.750 C 271.250 778.583 266.750 777.417 262.250 776.250 C 257.625 774.917 253.000 773.583 248.375 772.250 C 243.625 770.750 238.875 769.250 234.125 767.750 C 229.250 766.083 224.375 764.417 219.500 762.750 C 214.500 760.917 209.500 759.083 204.500 757.250 C 199.479 755.312 194.458 753.375 189.438 751.438 C 184.396 749.396 179.354 747.354 174.312 745.312 C 169.250 743.167 164.188 741.021 159.125 738.875 C 154.042 736.625 148.958 734.375 143.875 732.125 C 138.250 729.562 132.625 727.000 127.000 724.438 C 120.833 721.562 114.667 718.688 108.500 715.812 C 101.792 712.625 95.083 709.438 88.375 706.250 C 81.125 702.750 73.875 699.250 66.625 695.750 C 61.146 693.042 55.667 690.333 50.188 687.625 C 46.479 685.708 42.771 683.792 39.062 681.875 C 37.125 680.750 35.188 679.625 33.250 678.500 C 33.083 678.167 32.917 677.833 32.750 677.500 C 32.625 676.979 32.500 676.458 32.375 675.938 C 32.292 675.229 32.208 674.521 32.125 673.812 C 32.083 672.917 32.042 672.021 32.000 671.125 C 32.000 670.042 32.000 668.958 32.000 667.875 C 32.042 667.021 32.083 666.167 32.125 665.312 C 32.208 664.688 32.292 664.062 32.375 663.438 C 32.500 663.042 32.625 662.646 32.750 662.250 C 32.917 662.083 33.083 661.917 33.250 661.750 C 33.354 661.542 33.458 661.333 33.562 661.125 C 33.604 660.875 33.646 660.625 33.688 660.375 C 33.667 660.083 33.646 659.792 33.625 659.500 C 33.542 659.167 33.458 658.833 33.375 658.500 C 33.375 658.125 33.375 657.750 33.375 657.375 C 33.458 656.958 33.542 656.542 33.625 656.125 C 33.792 655.667 33.958 655.208 34.125 654.750 C 34.375 654.250 34.625 653.750 34.875 653.250 C 35.229 651.979 35.583 650.708 35.938 649.438 C 36.396 647.396 36.854 645.354 37.312 643.312 C 37.875 640.500 38.438 637.688 39.000 634.875 C 39.667 631.292 40.333 627.708 41.000 624.125 C 41.688 620.646 42.375 617.167 43.062 613.688 C 43.771 610.312 44.479 606.938 45.188 603.562 C 45.917 600.292 46.646 597.021 47.375 593.750 C 48.125 590.583 48.875 587.417 49.625 584.250 C 50.146 581.875 50.667 579.500 51.188 577.125 C 51.479 575.542 51.771 573.958 52.062 572.375 C 52.125 571.583 52.188 570.792 52.250 570.000 C 52.083 570.000 51.917 570.000 51.750 570.000 C 51.312 571.354 50.875 572.708 50.438 574.062 C 49.729 576.771 49.021 579.479 48.312 582.188 Z" fill="rgb(16,124,120)" fill-rule="evenodd" stroke="rgb(8,68,66)" stroke-linecap="round" stroke-linejoin="round" stroke-width="7.0" /><path d="M 82.250 472.625 C 81.417 474.542 80.583 476.458 79.750 478.375 C 78.708 481.167 77.667 483.958 76.625 486.750 C 75.375 490.417 74.125 494.083 72.875 497.750 C 71.417 502.292 69.958 506.833 68.500 511.375 C 66.833 516.792 65.167 522.208 63.500 527.625 C 61.979 532.854 60.458 538.083 58.938 543.312 C 57.562 548.354 56.188 553.396 54.812 558.438 C 53.583 563.292 52.354 568.146 51.125 573.000 C 50.042 577.667 48.958 582.333 47.875 587.000 C 47.000 590.938 46.125 594.875 45.250 598.812 C 44.583 602.021 43.917 605.229 43.250 608.438 C 42.792 610.917 42.333 613.396 41.875 615.875 C 41.625 617.625 41.375 619.375 41.125 621.125 C 40.792 623.000 40.458 624.875 40.125 626.750 C 39.708 628.750 39.292 630.750 38.875 632.750 C 38.375 634.875 37.875 637.000 37.375 639.125 C 36.792 641.375 36.208 643.625 35.625 645.875 C 35.146 647.958 34.667 650.042 34.188 652.125 C 33.812 654.042 33.438 655.958 33.062 657.875 C 32.792 659.625 32.521 661.375 32.250 663.125 C 32.083 664.708 31.917 666.292 31.750 667.875 C 31.646 669.146 31.542 670.417 31.438 671.688 C 31.396 672.646 31.354 673.604 31.312 674.562 C 31.333 675.208 31.354 675.854 31.375 676.500 C 31.458 676.833 31.542 677.167 31.625 677.500 C 33.542 678.667 35.458 679.833 37.375 681.000 C 41.125 683.000 44.875 685.000 48.625 687.000 C 54.208 689.833 59.792 692.667 65.375 695.500 C 72.792 699.167 80.208 702.833 87.625 706.500 C 94.979 710.021 102.333 713.542 109.688 717.062 C 116.979 720.438 124.271 723.812 131.562 727.188 C 138.792 730.417 146.021 733.646 153.250 736.875 C 160.417 739.958 167.583 743.042 174.750 746.125 C 181.062 748.750 187.375 751.375 193.688 754.000 C 199.146 756.167 204.604 758.333 210.062 760.500 C 214.667 762.208 219.271 763.917 223.875 765.625 C 227.625 766.875 231.375 768.125 235.125 769.375 C 239.333 770.646 243.542 771.917 247.750 773.188 C 252.417 774.479 257.083 775.771 261.750 777.062 C 266.875 778.375 272.000 779.688 277.125 781.000 C 282.708 782.333 288.292 783.667 293.875 785.000 C 298.500 786.042 303.125 787.083 307.750 788.125 C 311.417 788.875 315.083 789.625 318.750 790.375 C 321.458 790.833 324.167 791.292 326.875 791.750 C 328.625 791.917 330.375 792.083 332.125 792.250 C 334.250 792.333 336.375 792.417 338.500 792.500 C 341.000 792.500 343.500 792.500 346.000 792.500 C 348.875 792.417 351.750 792.333 354.625 792.250 C 357.875 792.083 361.125 791.917 364.375 791.750 C 367.479 791.438 370.583 791.125 373.688 790.812 C 376.646 790.354 379.604 789.896 382.562 789.438 C 385.375 788.833 388.188 788.229 391.000 787.625 C 393.667 786.875 396.333 786.125 399.000 785.375 C 401.417 784.604 403.833 783.833 406.250 783.062 C 408.417 782.271 410.583 781.479 412.750 780.688 C 414.667 779.875 416.583 779.062 418.500 778.250 C 420.167 777.417 421.833 776.583 423.500 775.750 C 425.250 774.771 427.000 773.792 428.750 772.812 C 430.583 771.688 432.417 770.562 434.250 769.438 C 436.167 768.167 438.083 766.896 440.000 765.625 C 442.000 764.208 444.000 762.792 446.000 761.375 C 448.438 759.521 450.875 757.667 453.312 755.812 C 456.188 753.521 459.062 751.229 461.938 748.938 C 465.250 746.208 468.562 743.479 471.875 740.750 C 475.625 737.583 479.375 734.417 483.125 731.250 C 486.625 728.458 490.125 725.667 493.625 722.875 C 496.875 720.458 500.125 718.042 503.375 715.625 C 506.375 713.583 509.375 711.542 512.375 709.500 C 515.125 707.833 517.875 706.167 520.625 704.500 C 523.333 703.021 526.042 701.542 528.750 700.062 C 531.417 698.771 534.083 697.479 536.750 696.188 C 539.375 695.083 542.000 693.979 544.625 692.875 C 547.208 691.958 549.792 691.042 552.375 690.125 C 554.646 689.375 556.917 688.625 559.188 687.875 C 561.146 687.292 563.104 686.708 565.062 686.125 C 566.708 685.708 568.354 685.292 570.000 684.875 C 571.333 684.625 572.667 684.375 574.000 684.125 C 575.458 683.917 576.917 683.708 578.375 683.500 C 579.958 683.333 581.542 683.167 583.125 683.000 C 584.833 682.875 586.542 682.750 588.250 682.625 C 590.083 682.542 591.917 682.458 593.750 682.375 C 595.729 682.396 597.708 682.417 599.688 682.438 C 601.812 682.562 603.938 682.688 606.062 682.812 C 608.333 683.042 610.604 683.271 612.875 683.500 C 615.292 683.833 617.708 684.167 620.125 684.500 C 622.562 684.958 625.000 685.417 627.438 685.875 C 629.896 686.458 632.354 687.042 634.812 687.625 C 637.292 688.333 639.771 689.042 642.250 689.750 C 644.750 690.583 647.250 691.417 649.750 692.250 C 652.250 693.229 654.750 694.208 657.250 695.188 C 659.750 696.312 662.250 697.438 664.750 698.562 C 667.250 699.833 669.750 701.104 672.250 702.375 C 674.750 703.792 677.250 705.208 679.750 706.625 C 682.333 708.271 684.917 709.917 687.500 711.562 C 690.167 713.438 692.833 715.312 695.500 717.188 C 698.250 719.292 701.000 721.396 703.750 723.500 C 706.583 725.833 709.417 728.167 712.250 730.500 C 714.875 732.604 717.500 734.708 720.125 736.812 C 722.542 738.688 724.958 740.562 727.375 742.438 C 729.583 744.083 731.792 745.729 734.000 747.375 C 736.000 748.792 738.000 750.208 740.000 751.625 C 742.021 752.979 744.042 754.333 746.062 755.688 C 748.104 756.979 750.146 758.271 752.188 759.562 C 754.250 760.792 756.312 762.021 758.375 763.250 C 760.458 764.417 762.542 765.583 764.625 766.750 C 766.979 767.938 769.333 769.125 771.688 770.312 C 774.312 771.521 776.938 772.729 779.562 773.938 C 782.458 775.167 785.354 776.396 788.250 777.625 C 791.417 778.875 794.583 780.125 797.750 781.375 C 800.583 782.417 803.417 783.458 806.250 784.500 C 808.750 785.333 811.250 786.167 813.750 787.000 C 815.917 787.625 818.083 788.250 820.250 788.875 C 822.083 789.292 823.917 789.708 825.750 790.125 C 827.500 790.479 829.250 790.833 831.000 791.188 C 832.667 791.479 834.333 791.771 836.000 792.062 C 837.583 792.292 839.167 792.521 840.750 792.750 C 842.250 792.917 843.750 793.083 845.250 793.250 C 847.188 793.375 849.125 793.500 851.062 793.625 C 853.438 793.708 855.812 793.792 858.188 793.875 C 861.000 793.917 863.812 793.958 866.625 794.000 C 869.875 794.000 873.125 794.000 876.375 794.000 C 879.229 793.958 882.083 793.917 884.938 793.875 C 887.396 793.792 889.854 793.708 892.312 793.625 C 894.375 793.500 896.438 793.375 898.500 793.250 C 900.167 793.083 901.833 792.917 903.500 792.750 C 905.208 792.521 906.917 792.292 908.625 792.062 C 910.375 791.771 912.125 791.479 913.875 791.188 C 915.667 790.833 917.458 790.479 919.250 790.125 C 921.083 789.708 922.917 789.292 924.750 788.875 C 926.229 788.583 927.708 788.292 929.188 788.000 C 930.312 787.833 931.438 787.667 932.562 787.500 C 933.333 787.458 934.104 787.417 934.875 787.375 C 935.292 787.458 935.708 787.542 936.125 787.625 C 936.250 788.125 936.375 788.625 936.500 789.125 C 936.333 790.042 936.167 790.958 936.000 791.875 C 935.542 793.208 935.083 794.542 934.625 795.875 C 933.875 797.625 933.125 799.375 932.375 801.125 C 931.375 803.021 930.375 804.917 929.375 806.812 C 928.125 808.854 926.875 810.896 925.625 812.938 C 924.125 815.125 922.625 817.312 921.125 819.500 C 919.375 821.833 917.625 824.167 915.875 826.500 C 914.000 828.812 912.125 831.125 910.250 833.438 C 908.250 835.729 906.250 838.021 904.250 840.312 C 902.125 842.583 900.000 844.854 897.875 847.125 C 895.625 849.375 893.375 851.625 891.125 853.875 C 888.729 856.167 886.333 858.458 883.938 860.750 C 881.396 863.083 878.854 865.417 876.312 867.750 C 873.625 870.125 870.938 872.500 868.250 874.875 C 865.417 877.292 862.583 879.708 859.750 882.125 C 856.958 884.458 854.167 886.792 851.375 889.125 C 848.625 891.375 845.875 893.625 843.125 895.875 C 840.417 898.042 837.708 900.208 835.000 902.375 C 832.333 904.458 829.667 906.542 827.000 908.625 C 824.062 910.812 821.125 913.000 818.188 915.188 C 814.979 917.479 811.771 919.771 808.562 922.062 C 805.083 924.458 801.604 926.854 798.125 929.250 C 794.375 931.750 790.625 934.250 786.875 936.750 C 783.188 939.083 779.500 941.417 775.812 943.750 C 772.188 945.917 768.562 948.083 764.938 950.250 C 761.375 952.250 757.812 954.250 754.250 956.250 C 750.750 958.083 747.250 959.917 743.750 961.750 C 740.438 963.375 737.125 965.000 733.812 966.625 C 730.688 968.042 727.562 969.458 724.438 970.875 C 721.500 972.083 718.562 973.292 715.625 974.500 C 712.875 975.500 710.125 976.500 707.375 977.500 C 705.271 978.312 703.167 979.125 701.062 979.938 C 699.604 980.562 698.146 981.188 696.688 981.812 C 695.875 982.250 695.062 982.688 694.250 983.125 C 694.083 983.375 693.917 983.625 693.750 983.875 C 693.833 984.438 693.917 985.000 694.000 985.562 C 694.333 986.438 694.667 987.312 695.000 988.188 C 695.583 989.375 696.167 990.562 696.750 991.750 C 697.583 993.250 698.417 994.750 699.250 996.250 C 700.167 998.062 701.083 999.875 702.000 1001.688 C 703.000 1003.812 704.000 1005.938 705.000 1008.062 C 706.083 1010.500 707.167 1012.938 708.250 1015.375 C 709.417 1018.125 710.583 1020.875 711.750 1023.625 C 713.312 1027.062 714.875 1030.500 716.438 1033.938 C 718.396 1038.062 720.354 1042.188 722.312 1046.312 C 724.667 1051.125 727.021 1055.938 729.375 1060.750 C 732.125 1066.250 734.875 1071.750 737.625 1077.250 C 740.125 1082.167 742.625 1087.083 745.125 1092.000 C 747.375 1096.333 749.625 1100.667 751.875 1105.000 C 753.875 1108.750 755.875 1112.500 757.875 1116.250 C 759.625 1119.417 761.375 1122.583 763.125 1125.750 C 765.271 1129.458 767.417 1133.167 769.562 1136.875 C 772.104 1141.125 774.646 1145.375 777.188 1149.625 C 780.125 1154.417 783.062 1159.208 786.000 1164.000 C 789.333 1169.333 792.667 1174.667 796.000 1180.000 C 799.521 1185.458 803.042 1190.917 806.562 1196.375 C 810.271 1201.958 813.979 1207.542 817.688 1213.125 C 821.583 1218.833 825.479 1224.542 829.375 1230.250 C 833.458 1236.083 837.542 1241.917 841.625 1247.750 C 845.688 1253.333 849.750 1258.917 853.812 1264.500 C 857.854 1269.833 861.896 1275.167 865.938 1280.500 C 869.958 1285.583 873.979 1290.667 878.000 1295.750 C 882.000 1300.583 886.000 1305.417 890.000 1310.250 C 894.062 1314.938 898.125 1319.625 902.188 1324.312 C 906.312 1328.854 910.438 1333.396 914.562 1337.938 C 918.750 1342.333 922.938 1346.729 927.125 1351.125 C 931.375 1355.375 935.625 1359.625 939.875 1363.875 C 943.396 1367.354 946.917 1370.833 950.438 1374.312 C 953.229 1377.021 956.021 1379.729 958.812 1382.438 C 960.875 1384.375 962.938 1386.312 965.000 1388.250 C 966.333 1389.417 967.667 1390.583 969.000 1391.750 C 970.625 1393.083 972.250 1394.417 973.875 1395.750 C 975.792 1397.250 977.708 1398.750 979.625 1400.250 C 981.833 1401.917 984.042 1403.583 986.250 1405.250 C 988.750 1407.083 991.250 1408.917 993.750 1410.750 C 995.917 1412.438 998.083 1414.125 1000.250 1415.812 C 1002.083 1417.354 1003.917 1418.896 1005.750 1420.438 C 1007.250 1421.833 1008.750 1423.229 1010.250 1424.625 C 1011.417 1425.875 1012.583 1427.125 1013.750 1428.375 C 1014.875 1429.312 1016.000 1430.250 1017.125 1431.188 C 1018.208 1431.812 1019.292 1432.438 1020.375 1433.062 C 1021.417 1433.375 1022.458 1433.688 1023.500 1434.000 C 1024.500 1434.000 1025.500 1434.000 1026.500 1434.000 C 1027.375 1433.958 1028.250 1433.917 1029.125 1433.875 C 1029.875 1433.792 1030.625 1433.708 1031.375 1433.625 C 1032.000 1433.500 1032.625 1433.375 1033.250 1433.250 C 1033.750 1433.083 1034.250 1432.917 1034.750 1432.750 C 1035.188 1432.562 1035.625 1432.375 1036.062 1432.188 C 1036.438 1431.979 1036.812 1431.771 1037.188 1431.562 C 1037.500 1431.333 1037.812 1431.104 1038.125 1430.875 C 1038.375 1430.625 1038.625 1430.375 1038.875 1430.125 C 1039.042 1429.729 1039.208 1429.333 1039.375 1428.938 C 1039.458 1428.396 1039.542 1427.854 1039.625 1427.312 C 1039.625 1426.625 1039.625 1425.938 1039.625 1425.250 C 1039.542 1424.417 1039.458 1423.583 1039.375 1422.750 C 1039.083 1421.625 1038.792 1420.500 1038.500 1419.375 C 1038.000 1417.958 1037.500 1416.542 1037.000 1415.125 C 1036.292 1413.417 1035.583 1411.708 1034.875 1410.000 C 1033.958 1408.000 1033.042 1406.000 1032.125 1404.000 C 1030.917 1401.812 1029.708 1399.625 1028.500 1397.438 C 1027.000 1395.062 1025.500 1392.688 1024.000 1390.312 C 1022.208 1387.750 1020.417 1385.188 1018.625 1382.625 C 1016.542 1379.875 1014.458 1377.125 1012.375 1374.375 C 1009.729 1371.000 1007.083 1367.625 1004.438 1364.250 C 1001.229 1360.250 998.021 1356.250 994.812 1352.250 C 991.042 1347.625 987.271 1343.000 983.500 1338.375 C 979.167 1333.125 974.833 1327.875 970.500 1322.625 C 966.833 1318.125 963.167 1313.625 959.500 1309.125 C 956.500 1305.375 953.500 1301.625 950.500 1297.875 C 948.167 1294.875 945.833 1291.875 943.500 1288.875 C 941.833 1286.625 940.167 1284.375 938.500 1282.125 C 936.771 1279.708 935.042 1277.292 933.312 1274.875 C 931.521 1272.292 929.729 1269.708 927.938 1267.125 C 926.083 1264.375 924.229 1261.625 922.375 1258.875 C 920.458 1255.958 918.542 1253.042 916.625 1250.125 C 914.562 1246.833 912.500 1243.542 910.438 1240.250 C 908.229 1236.583 906.021 1232.917 903.812 1229.250 C 901.458 1225.208 899.104 1221.167 896.750 1217.125 C 894.250 1212.708 891.750 1208.292 889.250 1203.875 C 887.104 1199.917 884.958 1195.958 882.812 1192.000 C 881.021 1188.500 879.229 1185.000 877.438 1181.500 C 876.000 1178.458 874.562 1175.417 873.125 1172.375 C 872.042 1169.792 870.958 1167.208 869.875 1164.625 C 868.854 1161.979 867.833 1159.333 866.812 1156.688 C 865.854 1153.979 864.896 1151.271 863.938 1148.562 C 863.042 1145.792 862.146 1143.021 861.250 1140.250 C 860.417 1137.417 859.583 1134.583 858.750 1131.750 C 858.000 1128.792 857.250 1125.833 856.500 1122.875 C 855.833 1119.792 855.167 1116.708 854.500 1113.625 C 853.917 1110.417 853.333 1107.208 852.750 1104.000 C 852.250 1100.667 851.750 1097.333 851.250 1094.000 C 850.875 1090.667 850.500 1087.333 850.125 1084.000 C 849.875 1080.667 849.625 1077.333 849.375 1074.000 C 849.250 1070.667 849.125 1067.333 849.000 1064.000 C 849.000 1060.667 849.000 1057.333 849.000 1054.000 C 849.083 1050.917 849.167 1047.833 849.250 1044.750 C 849.417 1041.917 849.583 1039.083 849.750 1036.250 C 850.000 1033.667 850.250 1031.083 850.500 1028.500 C 850.833 1026.167 851.167 1023.833 851.500 1021.500 C 851.833 1019.417 852.167 1017.333 852.500 1015.250 C 852.833 1013.417 853.167 1011.583 853.500 1009.750 C 853.833 1008.167 854.167 1006.583 854.500 1005.000 C 854.833 1003.667 855.167 1002.333 855.500 1001.000 C 855.979 999.375 856.458 997.750 856.938 996.125 C 857.562 994.208 858.188 992.292 858.812 990.375 C 859.583 988.167 860.354 985.958 861.125 983.750 C 862.042 981.250 862.958 978.750 863.875 976.250 C 864.875 973.771 865.875 971.292 866.875 968.812 C 867.958 966.354 869.042 963.896 870.125 961.438 C 871.292 959.000 872.458 956.562 873.625 954.125 C 874.875 951.708 876.125 949.292 877.375 946.875 C 878.979 944.125 880.583 941.375 882.188 938.625 C 884.146 935.542 886.104 932.458 888.062 929.375 C 890.375 925.958 892.688 922.542 895.000 919.125 C 897.667 915.375 900.333 911.625 903.000 907.875 C 906.208 903.708 909.417 899.542 912.625 895.375 C 916.375 890.792 920.125 886.208 923.875 881.625 C 928.167 876.625 932.458 871.625 936.750 866.625 C 941.583 861.208 946.417 855.792 951.250 850.375 C 955.729 845.271 960.208 840.167 964.688 835.062 C 968.812 830.271 972.938 825.479 977.062 820.688 C 980.833 816.208 984.604 811.729 988.375 807.250 C 991.792 803.083 995.208 798.917 998.625 794.750 C 1001.812 790.688 1005.000 786.625 1008.188 782.562 C 1011.146 778.604 1014.104 774.646 1017.062 770.688 C 1019.792 766.833 1022.521 762.979 1025.250 759.125 C 1027.750 755.375 1030.250 751.625 1032.750 747.875 C 1034.958 744.438 1037.167 741.000 1039.375 737.562 C 1041.292 734.438 1043.208 731.312 1045.125 728.188 C 1046.750 725.375 1048.375 722.562 1050.000 719.750 C 1051.333 717.250 1052.667 714.750 1054.000 712.250 C 1055.188 709.938 1056.375 707.625 1057.562 705.312 C 1058.604 703.188 1059.646 701.062 1060.688 698.938 C 1061.583 697.000 1062.479 695.062 1063.375 693.125 C 1064.125 691.375 1064.875 689.625 1065.625 687.875 C 1066.396 685.938 1067.167 684.000 1067.938 682.062 C 1068.729 679.938 1069.521 677.812 1070.312 675.688 C 1071.125 673.375 1071.938 671.062 1072.750 668.750 C 1073.583 666.250 1074.417 663.750 1075.250 661.250 C 1076.000 658.875 1076.750 656.500 1077.500 654.125 C 1078.167 651.875 1078.833 649.625 1079.500 647.375 C 1080.083 645.250 1080.667 643.125 1081.250 641.000 C 1081.750 639.000 1082.250 637.000 1082.750 635.000 C 1083.208 633.042 1083.667 631.083 1084.125 629.125 C 1084.542 627.208 1084.958 625.292 1085.375 623.375 C 1085.750 621.500 1086.125 619.625 1086.500 617.750 C 1086.833 615.917 1087.167 614.083 1087.500 612.250 C 1087.812 610.167 1088.125 608.083 1088.438 606.000 C 1088.729 603.667 1089.021 601.333 1089.312 599.000 C 1089.583 596.417 1089.854 593.833 1090.125 591.250 C 1090.375 588.417 1090.625 585.583 1090.875 582.750 C 1091.062 580.167 1091.250 577.583 1091.438 575.000 C 1091.562 572.667 1091.688 570.333 1091.812 568.000 C 1091.875 565.917 1091.938 563.833 1092.000 561.750 C 1092.000 559.917 1092.000 558.083 1092.000 556.250 C 1091.938 554.208 1091.875 552.167 1091.812 550.125 C 1091.688 547.875 1091.562 545.625 1091.438 543.375 C 1091.250 540.917 1091.062 538.458 1090.875 536.000 C 1090.625 533.333 1090.375 530.667 1090.125 528.000 C 1089.667 524.958 1089.208 521.917 1088.750 518.875 C 1088.083 515.458 1087.417 512.042 1086.750 508.625 C 1085.875 504.833 1085.000 501.042 1084.125 497.250 C 1083.042 493.083 1081.958 488.917 1080.875 484.750 C 1078.750 481.000 1076.625 477.250 1074.500 473.500 C 1071.333 470.167 1068.167 466.833 1065.000 463.500 C 1060.792 460.583 1056.583 457.667 1052.375 454.750 C 1047.125 452.250 1041.875 449.750 1036.625 447.250 C 1031.854 445.062 1027.083 442.875 1022.312 440.688 C 1018.021 438.812 1013.729 436.938 1009.438 435.062 C 1005.625 433.500 1001.812 431.938 998.000 430.375 C 994.667 429.125 991.333 427.875 988.000 426.625 C 984.500 425.438 981.000 424.250 977.500 423.062 C 973.833 421.938 970.167 420.812 966.500 419.688 C 962.667 418.625 958.833 417.562 955.000 416.500 C 951.000 415.500 947.000 414.500 943.000 413.500 C 938.938 412.625 934.875 411.750 930.812 410.875 C 926.688 410.125 922.562 409.375 918.438 408.625 C 914.250 408.000 910.062 407.375 905.875 406.750 C 901.625 406.250 897.375 405.750 893.125 405.250 C 888.854 404.875 884.583 404.500 880.312 404.125 C 876.021 403.875 871.729 403.625 867.438 403.375 C 863.125 403.250 858.812 403.125 854.500 403.000 C 850.167 403.000 845.833 403.000 841.500 403.000 C 837.583 403.062 833.667 403.125 829.750 403.188 C 826.250 403.312 822.750 403.438 819.250 403.562 C 816.167 403.750 813.083 403.938 810.000 404.125 C 807.333 404.375 804.667 404.625 802.000 404.875 C 797.667 405.521 793.333 406.167 789.000 406.812 C 783.000 407.854 777.000 408.896 771.000 409.938 C 763.333 411.375 755.667 412.812 748.000 414.250 C 738.667 416.083 729.333 417.917 720.000 419.750 C 712.000 421.271 704.000 422.792 696.000 424.312 C 689.333 425.521 682.667 426.729 676.000 427.938 C 670.667 428.833 665.333 429.729 660.000 430.625 C 656.000 431.208 652.000 431.792 648.000 432.375 C 644.479 432.854 640.958 433.333 637.438 433.812 C 634.396 434.188 631.354 434.562 628.312 434.938 C 625.750 435.208 623.188 435.479 620.625 435.750 C 618.542 435.917 616.458 436.083 614.375 436.250 C 612.271 436.375 610.167 436.500 608.062 436.625 C 605.938 436.708 603.812 436.792 601.688 436.875 C 599.542 436.917 597.396 436.958 595.250 437.000 C 593.083 437.000 590.917 437.000 588.750 437.000 C 586.167 436.917 583.583 436.833 581.000 436.750 C 578.000 436.583 575.000 436.417 572.000 436.250 C 568.583 436.000 565.167 435.750 561.750 435.500 C 557.917 435.167 554.083 434.833 550.250 434.500 C 546.229 434.062 542.208 433.625 538.188 433.188 C 533.979 432.646 529.771 432.104 525.562 431.562 C 521.167 430.917 516.771 430.271 512.375 429.625 C 507.792 428.875 503.208 428.125 498.625 427.375 C 494.417 426.646 490.208 425.917 486.000 425.188 C 482.167 424.479 478.333 423.771 474.500 423.062 C 471.042 422.375 467.583 421.688 464.125 421.000 C 461.042 420.333 457.958 419.667 454.875 419.000 C 451.104 418.271 447.333 417.542 443.562 416.812 C 439.104 416.021 434.646 415.229 430.188 414.438 C 425.042 413.583 419.896 412.729 414.750 411.875 C 408.917 410.958 403.083 410.042 397.250 409.125 C 391.979 408.375 386.708 407.625 381.438 406.875 C 376.729 406.292 372.021 405.708 367.312 405.125 C 363.167 404.708 359.021 404.292 354.875 403.875 C 351.292 403.625 347.708 403.375 344.125 403.125 C 340.771 402.958 337.417 402.792 334.062 402.625 C 330.938 402.542 327.812 402.458 324.688 402.375 C 321.792 402.375 318.896 402.375 316.000 402.375 C 313.333 402.458 310.667 402.542 308.000 402.625 C 305.521 402.750 303.042 402.875 300.562 403.000 C 298.271 403.167 295.979 403.333 293.688 403.500 C 291.583 403.708 289.479 403.917 287.375 404.125 C 285.458 404.375 283.542 404.625 281.625 404.875 C 279.271 405.271 276.917 405.667 274.562 406.062 C 271.771 406.604 268.979 407.146 266.188 407.688 C 262.958 408.375 259.729 409.062 256.500 409.750 C 252.833 410.583 249.167 411.417 245.500 412.250 C 241.479 413.292 237.458 414.333 233.438 415.375 C 229.062 416.625 224.688 417.875 220.312 419.125 C 215.583 420.583 210.854 422.042 206.125 423.500 C 201.042 425.167 195.958 426.833 190.875 428.500 C 185.833 430.229 180.792 431.958 175.750 433.688 C 170.750 435.479 165.750 437.271 160.750 439.062 C 155.792 440.917 150.833 442.771 145.875 444.625 C 140.958 446.542 136.042 448.458 131.125 450.375 C 126.958 451.917 122.792 453.458 118.625 455.000 C 115.208 456.167 111.792 457.333 108.375 458.500 C 105.708 459.292 103.042 460.083 100.375 460.875 C 98.458 461.292 96.542 461.708 94.625 462.125 C 92.979 462.917 91.333 463.708 89.688 464.500 C 88.312 465.667 86.938 466.833 85.562 468.000 Z M 293.000 522.125 C 293.667 521.708 294.333 521.292 295.000 520.875 C 295.729 520.479 296.458 520.083 297.188 519.688 C 297.979 519.312 298.771 518.938 299.562 518.562 C 300.417 518.208 301.271 517.854 302.125 517.500 C 303.042 517.167 303.958 516.833 304.875 516.500 C 305.854 516.208 306.833 515.917 307.812 515.625 C 308.854 515.375 309.896 515.125 310.938 514.875 C 312.042 514.667 313.146 514.458 314.250 514.250 C 315.417 514.083 316.583 513.917 317.750 513.750 C 318.958 513.625 320.167 513.500 321.375 513.375 C 322.625 513.292 323.875 513.208 325.125 513.125 C 326.417 513.083 327.708 513.042 329.000 513.000 C 330.333 513.000 331.667 513.000 333.000 513.000 C 334.375 513.042 335.750 513.083 337.125 513.125 C 338.542 513.208 339.958 513.292 341.375 513.375 C 342.833 513.500 344.292 513.625 345.750 513.750 C 347.250 513.917 348.750 514.083 350.250 514.250 C 351.583 514.438 352.917 514.625 354.250 514.812 C 355.417 515.021 356.583 515.229 357.750 515.438 C 358.750 515.667 359.750 515.896 360.750 516.125 C 361.583 516.375 362.417 516.625 363.250 516.875 C 364.167 517.208 365.083 517.542 366.000 517.875 C 367.000 518.292 368.000 518.708 369.000 519.125 C 370.083 519.625 371.167 520.125 372.250 520.625 C 373.417 521.208 374.583 521.792 375.750 522.375 C 376.854 522.979 377.958 523.583 379.062 524.188 C 380.104 524.812 381.146 525.438 382.188 526.062 C 383.167 526.708 384.146 527.354 385.125 528.000 C 386.042 528.667 386.958 529.333 387.875 530.000 C 388.917 530.917 389.958 531.833 391.000 532.750 C 392.167 533.917 393.333 535.083 394.500 536.250 C 395.792 537.667 397.083 539.083 398.375 540.500 C 399.792 542.167 401.208 543.833 402.625 545.500 C 403.771 546.896 404.917 548.292 406.062 549.688 C 406.938 550.812 407.812 551.938 408.688 553.062 C 409.292 553.917 409.896 554.771 410.500 555.625 C 410.833 556.208 411.167 556.792 411.500 557.375 C 411.875 558.188 412.250 559.000 412.625 559.812 C 413.042 560.854 413.458 561.896 413.875 562.938 C 414.333 564.208 414.792 565.479 415.250 566.750 C 415.750 568.250 416.250 569.750 416.750 571.250 C 417.146 572.854 417.542 574.458 417.938 576.062 C 418.229 577.771 418.521 579.479 418.812 581.188 C 419.000 583.000 419.188 584.812 419.375 586.625 C 419.458 588.542 419.542 590.458 419.625 592.375 C 419.646 594.062 419.667 595.750 419.688 597.438 C 419.646 598.896 419.604 600.354 419.562 601.812 C 419.458 603.042 419.354 604.271 419.250 605.500 C 419.083 606.500 418.917 607.500 418.750 608.500 C 418.562 609.396 418.375 610.292 418.188 611.188 C 417.979 611.979 417.771 612.771 417.562 613.562 C 417.333 614.250 417.104 614.938 416.875 615.625 C 416.625 616.208 416.375 616.792 416.125 617.375 C 415.729 618.083 415.333 618.792 414.938 619.500 C 414.396 620.333 413.854 621.167 413.312 622.000 C 412.625 622.958 411.938 623.917 411.250 624.875 C 410.417 625.958 409.583 627.042 408.750 628.125 C 407.854 629.167 406.958 630.208 406.062 631.250 C 405.104 632.250 404.146 633.250 403.188 634.250 C 402.167 635.208 401.146 636.167 400.125 637.125 C 399.042 638.042 397.958 638.958 396.875 639.875 C 395.833 640.688 394.792 641.500 393.750 642.312 C 392.750 643.021 391.750 643.729 390.750 644.438 C 389.792 645.042 388.833 645.646 387.875 646.250 C 386.958 646.750 386.042 647.250 385.125 647.750 C 384.125 648.229 383.125 648.708 382.125 649.188 C 381.042 649.646 379.958 650.104 378.875 650.562 C 377.708 651.000 376.542 651.438 375.375 651.875 C 374.125 652.292 372.875 652.708 371.625 653.125 C 370.354 653.479 369.083 653.833 367.812 654.188 C 366.521 654.479 365.229 654.771 363.938 655.062 C 362.625 655.292 361.312 655.521 360.000 655.750 C 358.667 655.917 357.333 656.083 356.000 656.250 C 354.583 656.354 353.167 656.458 351.750 656.562 C 350.250 656.604 348.750 656.646 347.250 656.688 C 345.667 656.667 344.083 656.646 342.500 656.625 C 340.833 656.542 339.167 656.458 337.500 656.375 C 335.854 656.208 334.208 656.042 332.562 655.875 C 330.938 655.625 329.312 655.375 327.688 655.125 C 326.083 654.792 324.479 654.458 322.875 654.125 C 321.292 653.708 319.708 653.292 318.125 652.875 C 316.708 652.458 315.292 652.042 313.875 651.625 C 312.625 651.208 311.375 650.792 310.125 650.375 C 309.042 649.958 307.958 649.542 306.875 649.125 C 305.958 648.708 305.042 648.292 304.125 647.875 C 303.188 647.396 302.250 646.917 301.312 646.438 C 300.354 645.896 299.396 645.354 298.438 644.812 C 297.458 644.208 296.479 643.604 295.500 643.000 C 294.500 642.333 293.500 641.667 292.500 641.000 C 291.500 640.250 290.500 639.500 289.500 638.750 C 288.500 637.917 287.500 637.083 286.500 636.250 C 285.500 635.333 284.500 634.417 283.500 633.500 C 282.500 632.500 281.500 631.500 280.500 630.500 C 279.542 629.396 278.583 628.292 277.625 627.188 C 276.708 625.979 275.792 624.771 274.875 623.562 C 274.000 622.250 273.125 620.938 272.250 619.625 C 271.417 618.208 270.583 616.792 269.750 615.375 C 269.042 613.979 268.333 612.583 267.625 611.188 C 267.042 609.812 266.458 608.438 265.875 607.062 C 265.417 605.708 264.958 604.354 264.500 603.000 C 264.167 601.667 263.833 600.333 263.500 599.000 C 263.271 597.417 263.042 595.833 262.812 594.250 C 262.688 592.417 262.562 590.583 262.438 588.750 C 262.417 586.667 262.396 584.583 262.375 582.500 C 262.458 580.167 262.542 577.833 262.625 575.500 C 262.854 573.333 263.083 571.167 263.312 569.000 C 263.688 567.000 264.062 565.000 264.438 563.000 C 264.958 561.167 265.479 559.333 266.000 557.500 C 266.667 555.833 267.333 554.167 268.000 552.500 C 268.646 551.042 269.292 549.583 269.938 548.125 C 270.562 546.875 271.188 545.625 271.812 544.375 C 272.417 543.333 273.021 542.292 273.625 541.250 C 274.208 540.417 274.792 539.583 275.375 538.750 C 276.062 537.896 276.750 537.042 277.438 536.188 C 278.229 535.312 279.021 534.438 279.812 533.562 C 280.708 532.667 281.604 531.771 282.500 530.875 C 283.500 529.958 284.500 529.042 285.500 528.125 C 286.417 527.333 287.333 526.542 288.250 525.750 C 289.083 525.083 289.917 524.417 290.750 523.750 Z M 866.500 518.250 C 867.500 518.750 868.500 519.250 869.500 519.750 C 870.562 520.375 871.625 521.000 872.688 521.625 C 873.812 522.375 874.938 523.125 876.062 523.875 C 877.250 524.750 878.438 525.625 879.625 526.500 C 880.875 527.500 882.125 528.500 883.375 529.500 C 884.479 530.479 885.583 531.458 886.688 532.438 C 887.646 533.396 888.604 534.354 889.562 535.312 C 890.375 536.250 891.188 537.188 892.000 538.125 C 892.667 539.042 893.333 539.958 894.000 540.875 C 894.625 541.854 895.250 542.833 895.875 543.812 C 896.458 544.854 897.042 545.896 897.625 546.938 C 898.167 548.042 898.708 549.146 899.250 550.250 C 899.750 551.417 900.250 552.583 900.750 553.750 C 901.146 555.375 901.542 557.000 901.938 558.625 C 902.229 560.708 902.521 562.792 902.812 564.875 C 903.000 567.417 903.188 569.958 903.375 572.500 C 903.458 575.500 903.542 578.500 903.625 581.500 C 903.604 584.062 903.583 586.625 903.562 589.188 C 903.438 591.312 903.312 593.438 903.188 595.562 C 902.958 597.250 902.729 598.938 902.500 600.625 C 902.167 601.875 901.833 603.125 901.500 604.375 C 901.104 605.562 900.708 606.750 900.312 607.938 C 899.854 609.062 899.396 610.188 898.938 611.312 C 898.417 612.375 897.896 613.438 897.375 614.500 C 896.792 615.500 896.208 616.500 895.625 617.500 C 894.771 618.667 893.917 619.833 893.062 621.000 C 891.938 622.333 890.812 623.667 889.688 625.000 C 888.292 626.500 886.896 628.000 885.500 629.500 C 883.833 631.167 882.167 632.833 880.500 634.500 C 878.833 635.958 877.167 637.417 875.500 638.875 C 873.833 640.125 872.167 641.375 870.500 642.625 C 868.833 643.667 867.167 644.708 865.500 645.750 C 863.833 646.583 862.167 647.417 860.500 648.250 C 858.917 648.958 857.333 649.667 855.750 650.375 C 854.250 650.958 852.750 651.542 851.250 652.125 C 849.833 652.583 848.417 653.042 847.000 653.500 C 845.667 653.833 844.333 654.167 843.000 654.500 C 841.312 654.729 839.625 654.958 837.938 655.188 C 835.896 655.312 833.854 655.438 831.812 655.562 C 829.417 655.583 827.021 655.604 824.625 655.625 C 821.875 655.542 819.125 655.458 816.375 655.375 C 813.979 655.208 811.583 655.042 809.188 654.875 C 807.146 654.625 805.104 654.375 803.062 654.125 C 801.375 653.792 799.688 653.458 798.000 653.125 C 796.667 652.708 795.333 652.292 794.000 651.875 C 792.667 651.375 791.333 650.875 790.000 650.375 C 788.667 649.792 787.333 649.208 786.000 648.625 C 784.667 647.958 783.333 647.292 782.000 646.625 C 780.667 645.875 779.333 645.125 778.000 644.375 C 776.708 643.542 775.417 642.708 774.125 641.875 C 772.875 640.958 771.625 640.042 770.375 639.125 C 769.167 638.125 767.958 637.125 766.750 636.125 C 765.583 635.042 764.417 633.958 763.250 632.875 C 762.292 631.938 761.333 631.000 760.375 630.062 C 759.625 629.271 758.875 628.479 758.125 627.688 C 757.583 627.042 757.042 626.396 756.500 625.750 C 756.167 625.250 755.833 624.750 755.500 624.250 C 755.104 623.438 754.708 622.625 754.312 621.812 C 753.854 620.688 753.396 619.562 752.938 618.438 C 752.417 617.000 751.896 615.562 751.375 614.125 C 750.792 612.375 750.208 610.625 749.625 608.875 C 749.188 607.229 748.750 605.583 748.312 603.938 C 748.021 602.396 747.729 600.854 747.438 599.312 C 747.292 597.875 747.146 596.438 747.000 595.000 C 747.000 593.667 747.000 592.333 747.000 591.000 C 747.062 589.729 747.125 588.458 747.188 587.188 C 747.312 585.979 747.438 584.771 747.562 583.562 C 747.750 582.417 747.938 581.271 748.125 580.125 C 748.375 579.042 748.625 577.958 748.875 576.875 C 749.333 575.521 749.792 574.167 750.250 572.812 C 750.917 571.188 751.583 569.562 752.250 567.938 C 753.125 566.042 754.000 564.146 754.875 562.250 C 755.958 560.083 757.042 557.917 758.125 555.750 C 759.083 553.958 760.042 552.167 761.000 550.375 C 761.833 548.958 762.667 547.542 763.500 546.125 C 764.208 545.083 764.917 544.042 765.625 543.000 C 766.208 542.333 766.792 541.667 767.375 541.000 C 768.042 540.312 768.708 539.625 769.375 538.938 C 770.125 538.229 770.875 537.521 771.625 536.812 C 772.458 536.083 773.292 535.354 774.125 534.625 C 775.042 533.875 775.958 533.125 776.875 532.375 C 777.917 531.625 778.958 530.875 780.000 530.125 C 781.167 529.375 782.333 528.625 783.500 527.875 C 784.792 527.125 786.083 526.375 787.375 525.625 C 788.792 524.875 790.208 524.125 791.625 523.375 C 792.979 522.708 794.333 522.042 795.688 521.375 C 796.979 520.792 798.271 520.208 799.562 519.625 C 800.792 519.125 802.021 518.625 803.250 518.125 C 804.417 517.708 805.583 517.292 806.750 516.875 C 807.917 516.500 809.083 516.125 810.250 515.750 C 811.417 515.417 812.583 515.083 813.750 514.750 C 814.917 514.458 816.083 514.167 817.250 513.875 C 818.417 513.625 819.583 513.375 820.750 513.125 C 822.042 512.938 823.333 512.750 824.625 512.562 C 826.042 512.438 827.458 512.312 828.875 512.188 C 830.417 512.125 831.958 512.062 833.500 512.000 C 835.167 512.000 836.833 512.000 838.500 512.000 C 840.083 512.083 841.667 512.167 843.250 512.250 C 844.750 512.417 846.250 512.583 847.750 512.750 C 849.167 513.000 850.583 513.250 852.000 513.500 C 853.333 513.833 854.667 514.167 856.000 514.500 C 857.250 514.875 858.500 515.250 859.750 515.625 C 860.917 516.042 862.083 516.458 863.250 516.875 Z" fill="rgb(37,47,53)" fill-rule="evenodd" stroke="rgb(20,25,29)" stroke-linecap="round" stroke-linejoin="round" stroke-width="7.0" /><path d="M 42.875 45.250 C 41.958 47.750 41.042 50.250 40.125 52.750 C 39.292 55.271 38.458 57.792 37.625 60.312 C 36.875 62.854 36.125 65.396 35.375 67.938 C 34.708 70.500 34.042 73.062 33.375 75.625 C 32.792 78.208 32.208 80.792 31.625 83.375 C 31.125 85.771 30.625 88.167 30.125 90.562 C 29.708 92.771 29.292 94.979 28.875 97.188 C 28.542 99.208 28.208 101.229 27.875 103.250 C 27.625 105.083 27.375 106.917 27.125 108.750 C 26.896 110.750 26.667 112.750 26.438 114.750 C 26.229 116.917 26.021 119.083 25.812 121.250 C 25.625 123.583 25.438 125.917 25.250 128.250 C 25.083 130.750 24.917 133.250 24.750 135.750 C 24.625 138.708 24.500 141.667 24.375 144.625 C 24.292 148.042 24.208 151.458 24.125 154.875 C 24.083 158.750 24.042 162.625 24.000 166.500 C 24.000 170.833 24.000 175.167 24.000 179.500 C 24.042 183.458 24.083 187.417 24.125 191.375 C 24.208 194.958 24.292 198.542 24.375 202.125 C 24.500 205.333 24.625 208.542 24.750 211.750 C 24.917 214.583 25.083 217.417 25.250 220.250 C 25.562 223.646 25.875 227.042 26.188 230.438 C 26.646 234.396 27.104 238.354 27.562 242.312 C 28.167 246.833 28.771 251.354 29.375 255.875 C 30.125 260.958 30.875 266.042 31.625 271.125 C 32.438 276.042 33.250 280.958 34.062 285.875 C 34.938 290.625 35.812 295.375 36.688 300.125 C 37.625 304.708 38.562 309.292 39.500 313.875 C 40.500 318.292 41.500 322.708 42.500 327.125 C 43.521 331.396 44.542 335.667 45.562 339.938 C 46.604 344.062 47.646 348.188 48.688 352.312 C 49.750 356.292 50.812 360.271 51.875 364.250 C 52.958 368.083 54.042 371.917 55.125 375.750 C 56.479 380.125 57.833 384.500 59.188 388.875 C 60.812 393.792 62.438 398.708 64.062 403.625 C 65.958 409.083 67.854 414.542 69.750 420.000 C 71.917 426.000 74.083 432.000 76.250 438.000 C 78.354 442.396 80.458 446.792 82.562 451.188 C 84.604 453.979 86.646 456.771 88.688 459.562 C 90.667 460.750 92.646 461.938 94.625 463.125 C 96.542 462.708 98.458 462.292 100.375 461.875 C 103.042 461.083 105.708 460.292 108.375 459.500 C 111.792 458.333 115.208 457.167 118.625 456.000 C 122.792 454.458 126.958 452.917 131.125 451.375 C 136.042 449.458 140.958 447.542 145.875 445.625 C 150.833 443.771 155.792 441.917 160.750 440.062 C 165.750 438.271 170.750 436.479 175.750 434.688 C 180.792 432.958 185.833 431.229 190.875 429.500 C 195.958 427.833 201.042 426.167 206.125 424.500 C 210.854 423.042 215.583 421.583 220.312 420.125 C 224.688 418.875 229.062 417.625 233.438 416.375 C 237.458 415.333 241.479 414.292 245.500 413.250 C 249.167 412.417 252.833 411.583 256.500 410.750 C 259.729 410.062 262.958 409.375 266.188 408.688 C 268.979 408.146 271.771 407.604 274.562 407.062 C 276.917 406.667 279.271 406.271 281.625 405.875 C 283.542 405.625 285.458 405.375 287.375 405.125 C 289.479 404.917 291.583 404.708 293.688 404.500 C 295.979 404.333 298.271 404.167 300.562 404.000 C 303.042 403.875 305.521 403.750 308.000 403.625 C 310.667 403.542 313.333 403.458 316.000 403.375 C 319.083 403.396 322.167 403.417 325.250 403.438 C 328.750 403.562 332.250 403.688 335.750 403.812 C 339.667 404.042 343.583 404.271 347.500 404.500 C 351.833 404.833 356.167 405.167 360.500 405.500 C 365.021 405.958 369.542 406.417 374.062 406.875 C 378.771 407.458 383.479 408.042 388.188 408.625 C 393.083 409.333 397.979 410.042 402.875 410.750 C 407.958 411.583 413.042 412.417 418.125 413.250 C 423.292 414.146 428.458 415.042 433.625 415.938 C 438.875 416.896 444.125 417.854 449.375 418.812 C 454.708 419.833 460.042 420.854 465.375 421.875 C 470.792 422.958 476.208 424.042 481.625 425.125 C 486.604 426.062 491.583 427.000 496.562 427.938 C 501.104 428.729 505.646 429.521 510.188 430.312 C 514.292 430.958 518.396 431.604 522.500 432.250 C 526.167 432.750 529.833 433.250 533.500 433.750 C 536.854 434.167 540.208 434.583 543.562 435.000 C 546.604 435.333 549.646 435.667 552.688 436.000 C 555.417 436.250 558.146 436.500 560.875 436.750 C 563.292 436.917 565.708 437.083 568.125 437.250 C 570.479 437.375 572.833 437.500 575.188 437.625 C 577.479 437.708 579.771 437.792 582.062 437.875 C 584.292 437.917 586.521 437.958 588.750 438.000 C 590.917 438.000 593.083 438.000 595.250 438.000 C 597.729 437.917 600.208 437.833 602.688 437.750 C 605.479 437.583 608.271 437.417 611.062 437.250 C 614.167 437.000 617.271 436.750 620.375 436.500 C 623.792 436.167 627.208 435.833 630.625 435.500 C 634.771 434.979 638.917 434.458 643.062 433.938 C 647.938 433.229 652.812 432.521 657.688 431.812 C 663.292 430.917 668.896 430.021 674.500 429.125 C 680.833 428.042 687.167 426.958 693.500 425.875 C 698.958 424.917 704.417 423.958 709.875 423.000 C 714.458 422.167 719.042 421.333 723.625 420.500 C 727.333 419.792 731.042 419.083 734.750 418.375 C 737.583 417.792 740.417 417.208 743.250 416.625 C 745.438 416.146 747.625 415.667 749.812 415.188 C 751.354 414.812 752.896 414.438 754.438 414.062 C 755.333 413.792 756.229 413.521 757.125 413.250 C 757.375 413.083 757.625 412.917 757.875 412.750 C 758.104 412.312 758.333 411.875 758.562 411.438 C 758.771 410.729 758.979 410.021 759.188 409.312 C 759.375 408.333 759.562 407.354 759.750 406.375 C 759.917 405.125 760.083 403.875 760.250 402.625 C 760.667 400.771 761.083 398.917 761.500 397.062 C 762.167 394.604 762.833 392.146 763.500 389.688 C 764.417 386.625 765.333 383.562 766.250 380.500 C 767.417 376.833 768.583 373.167 769.750 369.500 C 770.812 365.458 771.875 361.417 772.938 357.375 C 773.896 352.958 774.854 348.542 775.812 344.125 C 776.667 339.333 777.521 334.542 778.375 329.750 C 779.125 324.583 779.875 319.417 780.625 314.250 C 781.188 308.792 781.750 303.333 782.312 297.875 C 782.688 292.125 783.062 286.375 783.438 280.625 C 783.625 274.583 783.812 268.542 784.000 262.500 C 784.000 256.167 784.000 249.833 784.000 243.500 C 783.896 238.417 783.792 233.333 783.688 228.250 C 783.479 224.417 783.271 220.583 783.062 216.750 C 782.750 214.167 782.438 211.583 782.125 209.000 C 781.708 207.667 781.292 206.333 780.875 205.000 C 780.458 203.833 780.042 202.667 779.625 201.500 C 779.208 200.500 778.792 199.500 778.375 198.500 C 777.958 197.667 777.542 196.833 777.125 196.000 C 776.708 195.333 776.292 194.667 775.875 194.000 C 774.625 193.208 773.375 192.417 772.125 191.625 C 770.042 190.708 767.958 189.792 765.875 188.875 C 762.958 187.833 760.042 186.792 757.125 185.750 C 753.375 184.583 749.625 183.417 745.875 182.250 C 742.042 181.146 738.208 180.042 734.375 178.938 C 730.458 177.896 726.542 176.854 722.625 175.812 C 718.625 174.833 714.625 173.854 710.625 172.875 C 706.542 171.958 702.458 171.042 698.375 170.125 C 694.438 169.312 690.500 168.500 686.562 167.688 C 682.771 166.979 678.979 166.271 675.188 165.562 C 671.542 164.958 667.896 164.354 664.250 163.750 C 660.750 163.250 657.250 162.750 653.750 162.250 C 649.417 161.854 645.083 161.458 640.750 161.062 C 635.583 160.771 630.417 160.479 625.250 160.188 C 619.250 160.000 613.250 159.812 607.250 159.625 C 600.417 159.542 593.583 159.458 586.750 159.375 C 580.750 159.354 574.750 159.333 568.750 159.312 C 563.583 159.354 558.417 159.396 553.250 159.438 C 548.917 159.542 544.583 159.646 540.250 159.750 C 536.750 159.917 533.250 160.083 529.750 160.250 C 525.979 160.562 522.208 160.875 518.438 161.188 C 514.396 161.646 510.354 162.104 506.312 162.562 C 502.000 163.167 497.688 163.771 493.375 164.375 C 488.792 165.125 484.208 165.875 479.625 166.625 C 474.896 167.542 470.167 168.458 465.438 169.375 C 460.562 170.458 455.688 171.542 450.812 172.625 C 445.792 173.875 440.771 175.125 435.750 176.375 C 430.583 177.792 425.417 179.208 420.250 180.625 C 416.208 181.562 412.167 182.500 408.125 183.438 C 405.208 183.896 402.292 184.354 399.375 184.812 C 397.583 184.792 395.792 184.771 394.000 184.750 C 393.333 184.250 392.667 183.750 392.000 183.250 C 391.104 182.458 390.208 181.667 389.312 180.875 C 388.188 179.792 387.062 178.708 385.938 177.625 C 384.583 176.250 383.229 174.875 381.875 173.500 C 380.292 171.833 378.708 170.167 377.125 168.500 C 375.417 166.792 373.708 165.083 372.000 163.375 C 370.167 161.625 368.333 159.875 366.500 158.125 C 364.542 156.333 362.583 154.542 360.625 152.750 C 358.542 150.917 356.458 149.083 354.375 147.250 C 352.167 145.354 349.958 143.458 347.750 141.562 C 345.417 139.604 343.083 137.646 340.750 135.688 C 338.292 133.667 335.833 131.646 333.375 129.625 C 330.792 127.542 328.208 125.458 325.625 123.375 C 323.000 121.312 320.375 119.250 317.750 117.188 C 315.083 115.146 312.417 113.104 309.750 111.062 C 307.042 109.042 304.333 107.021 301.625 105.000 C 298.875 103.000 296.125 101.000 293.375 99.000 C 290.146 96.792 286.917 94.583 283.688 92.375 C 279.979 89.958 276.271 87.542 272.562 85.125 C 268.375 82.500 264.188 79.875 260.000 77.250 C 255.333 74.417 250.667 71.583 246.000 68.750 C 241.583 66.188 237.167 63.625 232.750 61.062 C 228.583 58.771 224.417 56.479 220.250 54.188 C 216.333 52.167 212.417 50.146 208.500 48.125 C 204.833 46.375 201.167 44.625 197.500 42.875 C 193.812 41.229 190.125 39.583 186.438 37.938 C 182.729 36.396 179.021 34.854 175.312 33.312 C 171.583 31.875 167.854 30.438 164.125 29.000 C 160.375 27.667 156.625 26.333 152.875 25.000 C 149.625 23.896 146.375 22.792 143.125 21.688 C 140.375 20.812 137.625 19.938 134.875 19.062 C 132.625 18.417 130.375 17.771 128.125 17.125 C 126.375 16.708 124.625 16.292 122.875 15.875 C 121.167 15.542 119.458 15.208 117.750 14.875 C 116.083 14.625 114.417 14.375 112.750 14.125 C 111.125 13.958 109.500 13.792 107.875 13.625 C 106.292 13.542 104.708 13.458 103.125 13.375 C 101.396 13.333 99.667 13.292 97.938 13.250 C 96.062 13.250 94.188 13.250 92.312 13.250 C 90.292 13.292 88.271 13.333 86.250 13.375 C 84.083 13.458 81.917 13.542 79.750 13.625 C 77.917 13.792 76.083 13.958 74.250 14.125 C 72.750 14.375 71.250 14.625 69.750 14.875 C 68.583 15.208 67.417 15.542 66.250 15.875 C 65.417 16.292 64.583 16.708 63.750 17.125 C 62.854 17.750 61.958 18.375 61.062 19.000 C 60.104 19.833 59.146 20.667 58.188 21.500 C 57.167 22.542 56.146 23.583 55.125 24.625 C 54.042 25.875 52.958 27.125 51.875 28.375 C 50.833 29.938 49.792 31.500 48.750 33.062 C 47.750 34.938 46.750 36.812 45.750 38.688 Z" fill="rgb(7,81,135)" fill-rule="evenodd" stroke="rgb(3,44,74)" stroke-linecap="round" stroke-linejoin="round" stroke-width="7.0" /><path d="M 1101.875 17.125 C 1100.958 16.708 1100.042 16.292 1099.125 15.875 C 1097.583 15.562 1096.042 15.250 1094.500 14.938 C 1092.333 14.729 1090.167 14.521 1088.000 14.312 C 1085.208 14.208 1082.417 14.104 1079.625 14.000 C 1076.208 14.000 1072.792 14.000 1069.375 14.000 C 1066.083 14.188 1062.792 14.375 1059.500 14.562 C 1056.333 14.938 1053.167 15.312 1050.000 15.688 C 1046.958 16.250 1043.917 16.812 1040.875 17.375 C 1037.958 18.125 1035.042 18.875 1032.125 19.625 C 1029.062 20.521 1026.000 21.417 1022.938 22.312 C 1019.729 23.354 1016.521 24.396 1013.312 25.438 C 1009.958 26.625 1006.604 27.812 1003.250 29.000 C 999.750 30.333 996.250 31.667 992.750 33.000 C 988.896 34.646 985.042 36.292 981.188 37.938 C 976.979 39.896 972.771 41.854 968.562 43.812 C 964.000 46.083 959.438 48.354 954.875 50.625 C 949.958 53.208 945.042 55.792 940.125 58.375 C 935.354 61.042 930.583 63.708 925.812 66.375 C 921.188 69.125 916.562 71.875 911.938 74.625 C 907.458 77.458 902.979 80.292 898.500 83.125 C 894.167 86.042 889.833 88.958 885.500 91.875 C 881.438 94.708 877.375 97.542 873.312 100.375 C 869.521 103.125 865.729 105.875 861.938 108.625 C 858.417 111.292 854.896 113.958 851.375 116.625 C 848.125 119.208 844.875 121.792 841.625 124.375 C 838.333 127.146 835.042 129.917 831.750 132.688 C 828.417 135.646 825.083 138.604 821.750 141.562 C 818.375 144.708 815.000 147.854 811.625 151.000 C 808.208 154.333 804.792 157.667 801.375 161.000 C 798.583 163.812 795.792 166.625 793.000 169.438 C 790.833 171.729 788.667 174.021 786.500 176.312 C 784.958 178.083 783.417 179.854 781.875 181.625 C 780.958 182.875 780.042 184.125 779.125 185.375 C 778.583 186.729 778.042 188.083 777.500 189.438 C 777.333 190.896 777.167 192.354 777.000 193.812 C 777.208 195.375 777.417 196.938 777.625 198.500 C 778.208 200.167 778.792 201.833 779.375 203.500 C 779.854 205.083 780.333 206.667 780.812 208.250 C 781.188 209.750 781.562 211.250 781.938 212.750 C 782.208 214.167 782.479 215.583 782.750 217.000 C 782.917 218.333 783.083 219.667 783.250 221.000 C 783.375 223.021 783.500 225.042 783.625 227.062 C 783.708 229.771 783.792 232.479 783.875 235.188 C 783.917 238.583 783.958 241.979 784.000 245.375 C 784.000 249.458 784.000 253.542 784.000 257.625 C 783.938 261.375 783.875 265.125 783.812 268.875 C 783.688 272.292 783.562 275.708 783.438 279.125 C 783.250 282.208 783.062 285.292 782.875 288.375 C 782.625 291.125 782.375 293.875 782.125 296.625 C 781.792 299.604 781.458 302.583 781.125 305.562 C 780.708 308.771 780.292 311.979 779.875 315.188 C 779.375 318.625 778.875 322.062 778.375 325.500 C 777.792 329.167 777.208 332.833 776.625 336.500 C 775.854 340.354 775.083 344.208 774.312 348.062 C 773.354 352.104 772.396 356.146 771.438 360.188 C 770.292 364.417 769.146 368.646 768.000 372.875 C 766.667 377.292 765.333 381.708 764.000 386.125 C 763.021 389.583 762.042 393.042 761.062 396.500 C 760.438 399.000 759.812 401.500 759.188 404.000 C 758.917 405.542 758.646 407.083 758.375 408.625 C 758.458 409.208 758.542 409.792 758.625 410.375 C 759.333 410.688 760.042 411.000 760.750 411.312 C 762.083 411.354 763.417 411.396 764.750 411.438 C 766.708 411.208 768.667 410.979 770.625 410.750 C 773.208 410.250 775.792 409.750 778.375 409.250 C 780.979 408.812 783.583 408.375 786.188 407.938 C 788.812 407.562 791.438 407.188 794.062 406.812 C 796.708 406.500 799.354 406.188 802.000 405.875 C 804.667 405.625 807.333 405.375 810.000 405.125 C 813.083 404.938 816.167 404.750 819.250 404.562 C 822.750 404.438 826.250 404.312 829.750 404.188 C 833.667 404.125 837.583 404.062 841.500 404.000 C 845.833 404.000 850.167 404.000 854.500 404.000 C 858.417 404.062 862.333 404.125 866.250 404.188 C 869.750 404.312 873.250 404.438 876.750 404.562 C 879.833 404.750 882.917 404.938 886.000 405.125 C 888.667 405.375 891.333 405.625 894.000 405.875 C 896.604 406.167 899.208 406.458 901.812 406.750 C 904.354 407.083 906.896 407.417 909.438 407.750 C 911.917 408.125 914.396 408.500 916.875 408.875 C 919.292 409.292 921.708 409.708 924.125 410.125 C 926.729 410.646 929.333 411.167 931.938 411.688 C 934.729 412.312 937.521 412.938 940.312 413.562 C 943.292 414.292 946.271 415.021 949.250 415.750 C 952.417 416.583 955.583 417.417 958.750 418.250 C 961.958 419.188 965.167 420.125 968.375 421.062 C 971.625 422.104 974.875 423.146 978.125 424.188 C 981.417 425.333 984.708 426.479 988.000 427.625 C 991.333 428.875 994.667 430.125 998.000 431.375 C 1001.750 432.917 1005.500 434.458 1009.250 436.000 C 1013.417 437.833 1017.583 439.667 1021.750 441.500 C 1026.333 443.625 1030.917 445.750 1035.500 447.875 C 1040.500 450.292 1045.500 452.708 1050.500 455.125 C 1054.312 456.938 1058.125 458.750 1061.938 460.562 C 1064.562 461.771 1067.188 462.979 1069.812 464.188 C 1071.250 464.792 1072.688 465.396 1074.125 466.000 C 1074.375 466.000 1074.625 466.000 1074.875 466.000 C 1075.125 465.938 1075.375 465.875 1075.625 465.812 C 1075.875 465.688 1076.125 465.562 1076.375 465.438 C 1076.625 465.250 1076.875 465.062 1077.125 464.875 C 1077.375 464.625 1077.625 464.375 1077.875 464.125 C 1078.229 463.667 1078.583 463.208 1078.938 462.750 C 1079.396 462.083 1079.854 461.417 1080.312 460.750 C 1080.875 459.875 1081.438 459.000 1082.000 458.125 C 1082.667 457.042 1083.333 455.958 1084.000 454.875 C 1084.667 453.667 1085.333 452.458 1086.000 451.250 C 1086.667 449.917 1087.333 448.583 1088.000 447.250 C 1088.667 445.792 1089.333 444.333 1090.000 442.875 C 1090.667 441.292 1091.333 439.708 1092.000 438.125 C 1092.792 436.042 1093.583 433.958 1094.375 431.875 C 1095.292 429.292 1096.208 426.708 1097.125 424.125 C 1098.167 421.042 1099.208 417.958 1100.250 414.875 C 1101.417 411.292 1102.583 407.708 1103.750 404.125 C 1104.833 400.667 1105.917 397.208 1107.000 393.750 C 1108.000 390.417 1109.000 387.083 1110.000 383.750 C 1110.917 380.542 1111.833 377.333 1112.750 374.125 C 1113.583 371.042 1114.417 367.958 1115.250 364.875 C 1116.104 361.458 1116.958 358.042 1117.812 354.625 C 1118.688 350.875 1119.562 347.125 1120.438 343.375 C 1121.333 339.292 1122.229 335.208 1123.125 331.125 C 1124.042 326.708 1124.958 322.292 1125.875 317.875 C 1126.750 313.208 1127.625 308.542 1128.500 303.875 C 1129.333 298.958 1130.167 294.042 1131.000 289.125 C 1131.792 283.958 1132.583 278.792 1133.375 273.625 C 1134.125 268.208 1134.875 262.792 1135.625 257.375 C 1136.188 252.875 1136.750 248.375 1137.312 243.875 C 1137.688 240.292 1138.062 236.708 1138.438 233.125 C 1138.625 230.458 1138.812 227.792 1139.000 225.125 C 1139.000 223.375 1139.000 221.625 1139.000 219.875 C 1139.042 218.208 1139.083 216.542 1139.125 214.875 C 1139.208 213.292 1139.292 211.708 1139.375 210.125 C 1139.500 208.625 1139.625 207.125 1139.750 205.625 C 1139.917 204.208 1140.083 202.792 1140.250 201.375 C 1140.375 199.458 1140.500 197.542 1140.625 195.625 C 1140.708 193.208 1140.792 190.792 1140.875 188.375 C 1140.917 185.458 1140.958 182.542 1141.000 179.625 C 1141.000 176.208 1141.000 172.792 1141.000 169.375 C 1140.896 165.646 1140.792 161.917 1140.688 158.188 C 1140.479 154.146 1140.271 150.104 1140.062 146.062 C 1139.750 141.708 1139.438 137.354 1139.125 133.000 C 1138.708 128.333 1138.292 123.667 1137.875 119.000 C 1137.458 114.958 1137.042 110.917 1136.625 106.875 C 1136.208 103.458 1135.792 100.042 1135.375 96.625 C 1134.958 93.833 1134.542 91.042 1134.125 88.250 C 1133.708 86.083 1133.292 83.917 1132.875 81.750 C 1132.417 79.604 1131.958 77.458 1131.500 75.312 C 1131.000 73.188 1130.500 71.062 1130.000 68.938 C 1129.458 66.833 1128.917 64.729 1128.375 62.625 C 1127.792 60.542 1127.208 58.458 1126.625 56.375 C 1126.042 54.479 1125.458 52.583 1124.875 50.688 C 1124.292 48.979 1123.708 47.271 1123.125 45.562 C 1122.542 44.042 1121.958 42.521 1121.375 41.000 C 1120.792 39.667 1120.208 38.333 1119.625 37.000 C 1118.958 35.750 1118.292 34.500 1117.625 33.250 C 1116.875 32.083 1116.125 30.917 1115.375 29.750 C 1114.542 28.667 1113.708 27.583 1112.875 26.500 C 1111.958 25.500 1111.042 24.500 1110.125 23.500 C 1109.208 22.646 1108.292 21.792 1107.375 20.938 C 1106.458 20.229 1105.542 19.521 1104.625 18.812 Z" fill="rgb(16,124,120)" fill-rule="evenodd" stroke="rgb(8,68,66)" stroke-linecap="round" stroke-linejoin="round" stroke-width="7.0" /><path d="M 303.375 800.875 C 304.792 803.958 306.208 807.042 307.625 810.125 C 309.083 813.000 310.542 815.875 312.000 818.750 C 313.500 821.417 315.000 824.083 316.500 826.750 C 318.042 829.208 319.583 831.667 321.125 834.125 C 322.708 836.375 324.292 838.625 325.875 840.875 C 327.583 843.167 329.292 845.458 331.000 847.750 C 332.833 850.083 334.667 852.417 336.500 854.750 C 338.458 857.125 340.417 859.500 342.375 861.875 C 344.458 864.292 346.542 866.708 348.625 869.125 C 350.562 871.312 352.500 873.500 354.438 875.688 C 356.229 877.646 358.021 879.604 359.812 881.562 C 361.458 883.292 363.104 885.021 364.750 886.750 C 366.250 888.250 367.750 889.750 369.250 891.250 C 371.146 893.000 373.042 894.750 374.938 896.500 C 377.229 898.500 379.521 900.500 381.812 902.500 C 384.500 904.750 387.188 907.000 389.875 909.250 C 392.958 911.750 396.042 914.250 399.125 916.750 C 401.917 918.938 404.708 921.125 407.500 923.312 C 410.000 925.188 412.500 927.062 415.000 928.938 C 417.208 930.500 419.417 932.062 421.625 933.625 C 423.542 934.875 425.458 936.125 427.375 937.375 C 429.375 938.625 431.375 939.875 433.375 941.125 C 435.458 942.375 437.542 943.625 439.625 944.875 C 441.792 946.125 443.958 947.375 446.125 948.625 C 448.375 949.875 450.625 951.125 452.875 952.375 C 455.604 953.750 458.333 955.125 461.062 956.500 C 464.271 958.000 467.479 959.500 470.688 961.000 C 474.375 962.625 478.062 964.250 481.750 965.875 C 485.917 967.625 490.083 969.375 494.250 971.125 C 498.208 972.646 502.167 974.167 506.125 975.688 C 509.875 976.979 513.625 978.271 517.375 979.562 C 520.917 980.625 524.458 981.688 528.000 982.750 C 531.333 983.583 534.667 984.417 538.000 985.250 C 541.562 986.000 545.125 986.750 548.688 987.500 C 552.479 988.167 556.271 988.833 560.062 989.500 C 564.083 990.083 568.104 990.667 572.125 991.250 C 576.375 991.750 580.625 992.250 584.875 992.750 C 588.625 993.104 592.375 993.458 596.125 993.812 C 599.375 994.021 602.625 994.229 605.875 994.438 C 608.625 994.500 611.375 994.562 614.125 994.625 C 616.375 994.542 618.625 994.458 620.875 994.375 C 622.875 994.250 624.875 994.125 626.875 994.000 C 628.625 993.833 630.375 993.667 632.125 993.500 C 633.625 993.292 635.125 993.083 636.625 992.875 C 637.875 992.625 639.125 992.375 640.375 992.125 C 641.792 991.896 643.208 991.667 644.625 991.438 C 646.208 991.229 647.792 991.021 649.375 990.812 C 651.125 990.625 652.875 990.438 654.625 990.250 C 656.542 990.083 658.458 989.917 660.375 989.750 C 662.312 989.521 664.250 989.292 666.188 989.062 C 668.146 988.771 670.104 988.479 672.062 988.188 C 674.042 987.833 676.021 987.479 678.000 987.125 C 680.000 986.708 682.000 986.292 684.000 985.875 C 686.292 985.250 688.583 984.625 690.875 984.000 C 693.458 983.167 696.042 982.333 698.625 981.500 C 701.500 980.458 704.375 979.417 707.250 978.375 C 710.417 977.125 713.583 975.875 716.750 974.625 C 720.250 973.062 723.750 971.500 727.250 969.938 C 731.083 968.062 734.917 966.188 738.750 964.312 C 742.917 962.125 747.083 959.938 751.250 957.750 C 755.750 955.250 760.250 952.750 764.750 950.250 C 768.896 947.833 773.042 945.417 777.188 943.000 C 780.979 940.667 784.771 938.333 788.562 936.000 C 792.000 933.750 795.438 931.500 798.875 929.250 C 801.958 927.083 805.042 924.917 808.125 922.750 C 811.667 920.104 815.208 917.458 818.750 914.812 C 822.750 911.688 826.750 908.562 830.750 905.438 C 835.208 901.833 839.667 898.229 844.125 894.625 C 849.042 890.542 853.958 886.458 858.875 882.375 C 863.146 878.729 867.417 875.083 871.688 871.438 C 875.312 868.229 878.938 865.021 882.562 861.812 C 885.542 859.042 888.521 856.271 891.500 853.500 C 893.833 851.167 896.167 848.833 898.500 846.500 C 900.521 844.417 902.542 842.333 904.562 840.250 C 906.271 838.417 907.979 836.583 909.688 834.750 C 911.083 833.167 912.479 831.583 913.875 830.000 C 914.958 828.667 916.042 827.333 917.125 826.000 C 918.167 824.625 919.208 823.250 920.250 821.875 C 921.250 820.458 922.250 819.042 923.250 817.625 C 924.208 816.167 925.167 814.708 926.125 813.250 C 927.042 811.750 927.958 810.250 928.875 808.750 C 929.667 807.354 930.458 805.958 931.250 804.562 C 931.917 803.271 932.583 801.979 933.250 800.688 C 933.792 799.500 934.333 798.312 934.875 797.125 C 935.292 796.042 935.708 794.958 936.125 793.875 C 936.417 793.000 936.708 792.125 937.000 791.250 C 937.167 790.583 937.333 789.917 937.500 789.250 C 937.542 788.792 937.583 788.333 937.625 787.875 C 937.542 787.625 937.458 787.375 937.375 787.125 C 936.542 787.083 935.708 787.042 934.875 787.000 C 933.292 787.167 931.708 787.333 930.125 787.500 C 927.792 787.875 925.458 788.250 923.125 788.625 C 920.042 789.208 916.958 789.792 913.875 790.375 C 910.646 790.833 907.417 791.292 904.188 791.750 C 900.812 792.083 897.438 792.417 894.062 792.750 C 890.542 792.958 887.021 793.167 883.500 793.375 C 879.833 793.458 876.167 793.542 872.500 793.625 C 869.333 793.646 866.167 793.667 863.000 793.688 C 860.333 793.646 857.667 793.604 855.000 793.562 C 852.833 793.458 850.667 793.354 848.500 793.250 C 846.833 793.083 845.167 792.917 843.500 792.750 C 841.771 792.521 840.042 792.292 838.312 792.062 C 836.521 791.771 834.729 791.479 832.938 791.188 C 831.083 790.833 829.229 790.479 827.375 790.125 C 825.458 789.708 823.542 789.292 821.625 788.875 C 819.562 788.333 817.500 787.792 815.438 787.250 C 813.229 786.583 811.021 785.917 808.812 785.250 C 806.458 784.458 804.104 783.667 801.750 782.875 C 799.250 781.958 796.750 781.042 794.250 780.125 C 791.708 779.083 789.167 778.042 786.625 777.000 C 784.042 775.833 781.458 774.667 778.875 773.500 C 776.250 772.208 773.625 770.917 771.000 769.625 C 768.333 768.208 765.667 766.792 763.000 765.375 C 760.458 763.938 757.917 762.500 755.375 761.062 C 752.958 759.604 750.542 758.146 748.125 756.688 C 745.833 755.208 743.542 753.729 741.250 752.250 C 739.083 750.750 736.917 749.250 734.750 747.750 C 732.396 746.021 730.042 744.292 727.688 742.562 C 725.146 740.604 722.604 738.646 720.062 736.688 C 717.333 734.500 714.604 732.312 711.875 730.125 C 708.958 727.708 706.042 725.292 703.125 722.875 C 700.438 720.771 697.750 718.667 695.062 716.562 C 692.604 714.771 690.146 712.979 687.688 711.188 C 685.458 709.708 683.229 708.229 681.000 706.750 C 679.000 705.583 677.000 704.417 675.000 703.250 C 672.958 702.167 670.917 701.083 668.875 700.000 C 666.792 699.000 664.708 698.000 662.625 697.000 C 660.500 696.083 658.375 695.167 656.250 694.250 C 654.083 693.417 651.917 692.583 649.750 691.750 C 647.438 691.000 645.125 690.250 642.812 689.500 C 640.354 688.833 637.896 688.167 635.438 687.500 C 632.833 686.917 630.229 686.333 627.625 685.750 C 624.875 685.250 622.125 684.750 619.375 684.250 C 616.688 683.896 614.000 683.542 611.312 683.188 C 608.688 682.979 606.062 682.771 603.438 682.562 C 600.875 682.500 598.312 682.438 595.750 682.375 C 593.250 682.458 590.750 682.542 588.250 682.625 C 586.000 682.771 583.750 682.917 581.500 683.062 C 579.500 683.271 577.500 683.479 575.500 683.688 C 573.750 683.958 572.000 684.229 570.250 684.500 C 568.750 684.833 567.250 685.167 565.750 685.500 C 564.125 685.938 562.500 686.375 560.875 686.812 C 559.125 687.354 557.375 687.896 555.625 688.438 C 553.750 689.083 551.875 689.729 550.000 690.375 C 548.000 691.125 546.000 691.875 544.000 692.625 C 541.875 693.542 539.750 694.458 537.625 695.375 C 535.375 696.458 533.125 697.542 530.875 698.625 C 528.500 699.875 526.125 701.125 523.750 702.375 C 521.250 703.792 518.750 705.208 516.250 706.625 C 513.250 708.625 510.250 710.625 507.250 712.625 C 503.750 715.208 500.250 717.792 496.750 720.375 C 492.750 723.542 488.750 726.708 484.750 729.875 C 480.250 733.625 475.750 737.375 471.250 741.125 C 467.583 744.146 463.917 747.167 460.250 750.188 C 457.417 752.479 454.583 754.771 451.750 757.062 C 449.750 758.625 447.750 760.188 445.750 761.750 C 444.583 762.583 443.417 763.417 442.250 764.250 C 440.958 765.104 439.667 765.958 438.375 766.812 C 436.958 767.688 435.542 768.562 434.125 769.438 C 432.583 770.333 431.042 771.229 429.500 772.125 C 427.833 773.042 426.167 773.958 424.500 774.875 C 422.875 775.708 421.250 776.542 419.625 777.375 C 418.042 778.125 416.458 778.875 414.875 779.625 C 413.333 780.292 411.792 780.958 410.250 781.625 C 408.750 782.208 407.250 782.792 405.750 783.375 C 404.146 783.917 402.542 784.458 400.938 785.000 C 399.229 785.500 397.521 786.000 395.812 786.500 C 394.000 786.958 392.188 787.417 390.375 787.875 C 388.458 788.292 386.542 788.708 384.625 789.125 C 382.667 789.479 380.708 789.833 378.750 790.188 C 376.750 790.479 374.750 790.771 372.750 791.062 C 370.708 791.292 368.667 791.521 366.625 791.750 C 364.542 791.917 362.458 792.083 360.375 792.250 C 358.375 792.354 356.375 792.458 354.375 792.562 C 352.458 792.604 350.542 792.646 348.625 792.688 C 346.792 792.667 344.958 792.646 343.125 792.625 C 341.375 792.542 339.625 792.458 337.875 792.375 C 335.938 792.188 334.000 792.000 332.062 791.812 C 329.938 791.521 327.812 791.229 325.688 790.938 C 323.375 790.542 321.062 790.146 318.750 789.750 C 316.250 789.250 313.750 788.750 311.250 788.250 C 309.312 787.896 307.375 787.542 305.438 787.188 C 304.062 786.979 302.688 786.771 301.312 786.562 C 300.500 786.500 299.688 786.438 298.875 786.375 C 298.625 786.458 298.375 786.542 298.125 786.625 C 298.292 787.458 298.458 788.292 298.625 789.125 C 299.208 790.708 299.792 792.292 300.375 793.875 Z M 529.625 731.375 C 532.208 730.125 534.792 728.875 537.375 727.625 C 539.688 726.583 542.000 725.542 544.312 724.500 C 546.354 723.667 548.396 722.833 550.438 722.000 C 552.208 721.375 553.979 720.750 555.750 720.125 C 557.250 719.708 558.750 719.292 560.250 718.875 C 561.833 718.500 563.417 718.125 565.000 717.750 C 566.667 717.417 568.333 717.083 570.000 716.750 C 571.750 716.458 573.500 716.167 575.250 715.875 C 577.083 715.625 578.917 715.375 580.750 715.125 C 582.771 714.979 584.792 714.833 586.812 714.688 C 589.021 714.646 591.229 714.604 593.438 714.562 C 595.833 714.625 598.229 714.688 600.625 714.750 C 603.208 714.917 605.792 715.083 608.375 715.250 C 610.938 715.562 613.500 715.875 616.062 716.188 C 618.604 716.646 621.146 717.104 623.688 717.562 C 626.208 718.167 628.729 718.771 631.250 719.375 C 633.750 720.125 636.250 720.875 638.750 721.625 C 641.083 722.438 643.417 723.250 645.750 724.062 C 647.917 724.938 650.083 725.812 652.250 726.688 C 654.250 727.625 656.250 728.562 658.250 729.500 C 660.083 730.500 661.917 731.500 663.750 732.500 C 665.312 733.417 666.875 734.333 668.438 735.250 C 669.729 736.083 671.021 736.917 672.312 737.750 C 673.333 738.500 674.354 739.250 675.375 740.000 C 676.125 740.667 676.875 741.333 677.625 742.000 C 678.271 742.646 678.917 743.292 679.562 743.938 C 680.104 744.562 680.646 745.188 681.188 745.812 C 681.625 746.417 682.062 747.021 682.500 747.625 C 682.833 748.208 683.167 748.792 683.500 749.375 C 683.792 750.042 684.083 750.708 684.375 751.375 C 684.625 752.125 684.875 752.875 685.125 753.625 C 685.333 754.458 685.542 755.292 685.750 756.125 C 685.917 757.042 686.083 757.958 686.250 758.875 C 686.354 760.167 686.458 761.458 686.562 762.750 C 686.604 764.417 686.646 766.083 686.688 767.750 C 686.667 769.792 686.646 771.833 686.625 773.875 C 686.542 776.292 686.458 778.708 686.375 781.125 C 686.208 783.271 686.042 785.417 685.875 787.562 C 685.625 789.438 685.375 791.312 685.125 793.188 C 684.792 794.792 684.458 796.396 684.125 798.000 C 683.708 799.333 683.292 800.667 682.875 802.000 C 682.354 803.354 681.833 804.708 681.312 806.062 C 680.688 807.438 680.062 808.812 679.438 810.188 C 678.708 811.583 677.979 812.979 677.250 814.375 C 676.417 815.792 675.583 817.208 674.750 818.625 C 673.750 820.083 672.750 821.542 671.750 823.000 C 670.583 824.500 669.417 826.000 668.250 827.500 C 666.917 829.042 665.583 830.583 664.250 832.125 C 662.750 833.708 661.250 835.292 659.750 836.875 C 658.375 838.250 657.000 839.625 655.625 841.000 C 654.375 842.167 653.125 843.333 651.875 844.500 C 650.750 845.458 649.625 846.417 648.500 847.375 C 647.500 848.125 646.500 848.875 645.500 849.625 C 644.500 850.312 643.500 851.000 642.500 851.688 C 641.500 852.312 640.500 852.938 639.500 853.562 C 638.500 854.125 637.500 854.688 636.500 855.250 C 635.500 855.750 634.500 856.250 633.500 856.750 C 632.500 857.208 631.500 857.667 630.500 858.125 C 629.500 858.542 628.500 858.958 627.500 859.375 C 626.500 859.750 625.500 860.125 624.500 860.500 C 623.500 860.833 622.500 861.167 621.500 861.500 C 620.271 861.812 619.042 862.125 617.812 862.438 C 616.354 862.729 614.896 863.021 613.438 863.312 C 611.750 863.583 610.062 863.854 608.375 864.125 C 606.458 864.375 604.542 864.625 602.625 864.875 C 600.708 865.021 598.792 865.167 596.875 865.312 C 594.958 865.354 593.042 865.396 591.125 865.438 C 589.208 865.375 587.292 865.312 585.375 865.250 C 583.458 865.083 581.542 864.917 579.625 864.750 C 577.833 864.521 576.042 864.292 574.250 864.062 C 572.583 863.771 570.917 863.479 569.250 863.188 C 567.708 862.833 566.167 862.479 564.625 862.125 C 563.208 861.708 561.792 861.292 560.375 860.875 C 558.938 860.354 557.500 859.833 556.062 859.312 C 554.604 858.688 553.146 858.062 551.688 857.438 C 550.208 856.708 548.729 855.979 547.250 855.250 C 545.750 854.417 544.250 853.583 542.750 852.750 C 541.208 851.729 539.667 850.708 538.125 849.688 C 536.542 848.479 534.958 847.271 533.375 846.062 C 531.750 844.667 530.125 843.271 528.500 841.875 C 526.833 840.292 525.167 838.708 523.500 837.125 C 522.042 835.625 520.583 834.125 519.125 832.625 C 517.875 831.208 516.625 829.792 515.375 828.375 C 514.333 827.042 513.292 825.708 512.250 824.375 C 511.417 823.125 510.583 821.875 509.750 820.625 C 508.979 819.312 508.208 818.000 507.438 816.688 C 506.729 815.312 506.021 813.938 505.312 812.562 C 504.667 811.125 504.021 809.688 503.375 808.250 C 502.792 806.750 502.208 805.250 501.625 803.750 C 501.125 802.333 500.625 800.917 500.125 799.500 C 499.708 798.167 499.292 796.833 498.875 795.500 C 498.542 794.250 498.208 793.000 497.875 791.750 C 497.625 790.583 497.375 789.417 497.125 788.250 C 496.938 787.000 496.750 785.750 496.562 784.500 C 496.438 783.167 496.312 781.833 496.188 780.500 C 496.125 779.083 496.062 777.667 496.000 776.250 C 496.000 774.750 496.000 773.250 496.000 771.750 C 496.104 770.375 496.208 769.000 496.312 767.625 C 496.521 766.375 496.729 765.125 496.938 763.875 C 497.250 762.750 497.562 761.625 497.875 760.500 C 498.292 759.500 498.708 758.500 499.125 757.500 C 499.792 756.417 500.458 755.333 501.125 754.250 C 502.042 753.083 502.958 751.917 503.875 750.750 C 505.042 749.500 506.208 748.250 507.375 747.000 C 508.792 745.667 510.208 744.333 511.625 743.000 C 513.333 741.688 515.042 740.375 516.750 739.062 C 518.750 737.771 520.750 736.479 522.750 735.188 Z" fill="rgb(245,245,245)" fill-rule="evenodd" stroke="rgb(134,134,134)" stroke-linecap="round" stroke-linejoin="round" stroke-width="7.0" /><path d="M 519.625 736.500 C 518.208 737.500 516.792 738.500 515.375 739.500 C 514.104 740.500 512.833 741.500 511.562 742.500 C 510.438 743.500 509.312 744.500 508.188 745.500 C 507.208 746.500 506.229 747.500 505.250 748.500 C 504.417 749.500 503.583 750.500 502.750 751.500 C 502.062 752.396 501.375 753.292 500.688 754.188 C 500.146 754.979 499.604 755.771 499.062 756.562 C 498.667 757.250 498.271 757.938 497.875 758.625 C 497.625 759.208 497.375 759.792 497.125 760.375 C 496.938 761.271 496.750 762.167 496.562 763.062 C 496.438 764.271 496.312 765.479 496.188 766.688 C 496.125 768.208 496.062 769.729 496.000 771.250 C 496.000 773.083 496.000 774.917 496.000 776.750 C 496.104 778.521 496.208 780.292 496.312 782.062 C 496.521 783.771 496.729 785.479 496.938 787.188 C 497.250 788.833 497.562 790.479 497.875 792.125 C 498.292 793.708 498.708 795.292 499.125 796.875 C 499.625 798.438 500.125 800.000 500.625 801.562 C 501.208 803.104 501.792 804.646 502.375 806.188 C 503.042 807.708 503.708 809.229 504.375 810.750 C 505.125 812.250 505.875 813.750 506.625 815.250 C 507.542 816.792 508.458 818.333 509.375 819.875 C 510.458 821.458 511.542 823.042 512.625 824.625 C 513.875 826.250 515.125 827.875 516.375 829.500 C 517.792 831.167 519.208 832.833 520.625 834.500 C 522.104 836.042 523.583 837.583 525.062 839.125 C 526.604 840.542 528.146 841.958 529.688 843.375 C 531.292 844.667 532.896 845.958 534.500 847.250 C 536.167 848.417 537.833 849.583 539.500 850.750 C 541.125 851.771 542.750 852.792 544.375 853.812 C 545.958 854.688 547.542 855.562 549.125 856.438 C 550.667 857.167 552.208 857.896 553.750 858.625 C 555.250 859.208 556.750 859.792 558.250 860.375 C 559.729 860.875 561.208 861.375 562.688 861.875 C 564.146 862.292 565.604 862.708 567.062 863.125 C 568.500 863.458 569.938 863.792 571.375 864.125 C 572.792 864.375 574.208 864.625 575.625 864.875 C 577.104 865.062 578.583 865.250 580.062 865.438 C 581.604 865.562 583.146 865.688 584.688 865.812 C 586.292 865.875 587.896 865.938 589.500 866.000 C 591.167 866.000 592.833 866.000 594.500 866.000 C 596.208 865.896 597.917 865.792 599.625 865.688 C 601.375 865.479 603.125 865.271 604.875 865.062 C 606.667 864.750 608.458 864.438 610.250 864.125 C 612.083 863.708 613.917 863.292 615.750 862.875 C 617.521 862.375 619.292 861.875 621.062 861.375 C 622.771 860.792 624.479 860.208 626.188 859.625 C 627.833 858.958 629.479 858.292 631.125 857.625 C 632.708 856.875 634.292 856.125 635.875 855.375 C 637.250 854.667 638.625 853.958 640.000 853.250 C 641.167 852.583 642.333 851.917 643.500 851.250 C 644.458 850.625 645.417 850.000 646.375 849.375 C 647.125 848.792 647.875 848.208 648.625 847.625 C 649.521 846.854 650.417 846.083 651.312 845.312 C 652.354 844.354 653.396 843.396 654.438 842.438 C 655.625 841.292 656.812 840.146 658.000 839.000 C 659.333 837.667 660.667 836.333 662.000 835.000 C 663.250 833.625 664.500 832.250 665.750 830.875 C 666.917 829.458 668.083 828.042 669.250 826.625 C 670.333 825.167 671.417 823.708 672.500 822.250 C 673.500 820.750 674.500 819.250 675.500 817.750 C 676.354 816.354 677.208 814.958 678.062 813.562 C 678.771 812.271 679.479 810.979 680.188 809.688 C 680.750 808.500 681.312 807.312 681.875 806.125 C 682.292 805.042 682.708 803.958 683.125 802.875 C 683.479 801.812 683.833 800.750 684.188 799.688 C 684.479 798.646 684.771 797.604 685.062 796.562 C 685.292 795.542 685.521 794.521 685.750 793.500 C 685.917 792.500 686.083 791.500 686.250 790.500 C 686.354 789.104 686.458 787.708 686.562 786.312 C 686.604 784.521 686.646 782.729 686.688 780.938 C 686.667 778.750 686.646 776.562 686.625 774.375 C 686.542 771.792 686.458 769.208 686.375 766.625 C 686.229 764.500 686.083 762.375 685.938 760.250 C 685.729 758.583 685.521 756.917 685.312 755.250 C 685.042 754.042 684.771 752.833 684.500 751.625 C 684.167 750.875 683.833 750.125 683.500 749.375 C 683.125 748.688 682.750 748.000 682.375 747.312 C 681.958 746.688 681.542 746.062 681.125 745.438 C 680.667 744.875 680.208 744.312 679.750 743.750 C 679.250 743.250 678.750 742.750 678.250 742.250 C 677.521 741.646 676.792 741.042 676.062 740.438 C 675.104 739.729 674.146 739.021 673.188 738.312 C 672.000 737.500 670.812 736.688 669.625 735.875 C 668.208 734.958 666.792 734.042 665.375 733.125 C 664.042 732.312 662.708 731.500 661.375 730.688 C 660.125 729.979 658.875 729.271 657.625 728.562 C 656.458 727.958 655.292 727.354 654.125 726.750 C 653.042 726.250 651.958 725.750 650.875 725.250 C 649.562 724.729 648.250 724.208 646.938 723.688 C 645.396 723.146 643.854 722.604 642.312 722.062 C 640.542 721.500 638.771 720.938 637.000 720.375 C 635.000 719.792 633.000 719.208 631.000 718.625 C 629.229 718.146 627.458 717.667 625.688 717.188 C 624.146 716.812 622.604 716.438 621.062 716.062 C 619.750 715.792 618.438 715.521 617.125 715.250 C 616.042 715.083 614.958 714.917 613.875 714.750 C 612.542 714.625 611.208 714.500 609.875 714.375 C 608.292 714.292 606.708 714.208 605.125 714.125 C 603.292 714.083 601.458 714.042 599.625 714.000 C 597.542 714.000 595.458 714.000 593.375 714.000 C 591.208 714.125 589.042 714.250 586.875 714.375 C 584.625 714.625 582.375 714.875 580.125 715.125 C 577.792 715.500 575.458 715.875 573.125 716.250 C 570.708 716.750 568.292 717.250 565.875 717.750 C 563.458 718.375 561.042 719.000 558.625 719.625 C 556.208 720.375 553.792 721.125 551.375 721.875 C 548.958 722.750 546.542 723.625 544.125 724.500 C 541.708 725.500 539.292 726.500 536.875 727.500 C 534.708 728.500 532.542 729.500 530.375 730.500 C 528.458 731.500 526.542 732.500 524.625 733.500 Z" fill="rgb(37,47,53)" fill-rule="evenodd" stroke="rgb(20,25,29)" stroke-linecap="round" stroke-linejoin="round" stroke-width="7.0" /><path d="M 287.625 526.625 C 286.208 527.875 284.792 529.125 283.375 530.375 C 282.083 531.708 280.792 533.042 279.500 534.375 C 278.333 535.792 277.167 537.208 276.000 538.625 C 274.958 540.125 273.917 541.625 272.875 543.125 C 271.958 544.708 271.042 546.292 270.125 547.875 C 269.354 549.375 268.583 550.875 267.812 552.375 C 267.188 553.792 266.562 555.208 265.938 556.625 C 265.458 557.958 264.979 559.292 264.500 560.625 C 264.167 561.875 263.833 563.125 263.500 564.375 C 263.271 565.958 263.042 567.542 262.812 569.125 C 262.688 571.042 262.562 572.958 262.438 574.875 C 262.417 577.125 262.396 579.375 262.375 581.625 C 262.458 584.208 262.542 586.792 262.625 589.375 C 262.792 591.583 262.958 593.792 263.125 596.000 C 263.375 597.833 263.625 599.667 263.875 601.500 C 264.208 602.958 264.542 604.417 264.875 605.875 C 265.292 606.958 265.708 608.042 266.125 609.125 C 266.729 610.333 267.333 611.542 267.938 612.750 C 268.729 614.083 269.521 615.417 270.312 616.750 C 271.292 618.208 272.271 619.667 273.250 621.125 C 274.417 622.708 275.583 624.292 276.750 625.875 C 277.958 627.312 279.167 628.750 280.375 630.188 C 281.625 631.479 282.875 632.771 284.125 634.062 C 285.417 635.208 286.708 636.354 288.000 637.500 C 289.333 638.500 290.667 639.500 292.000 640.500 C 293.208 641.354 294.417 642.208 295.625 643.062 C 296.708 643.771 297.792 644.479 298.875 645.188 C 299.833 645.750 300.792 646.312 301.750 646.875 C 302.583 647.292 303.417 647.708 304.250 648.125 C 305.188 648.542 306.125 648.958 307.062 649.375 C 308.104 649.792 309.146 650.208 310.188 650.625 C 311.333 651.042 312.479 651.458 313.625 651.875 C 314.875 652.292 316.125 652.708 317.375 653.125 C 318.604 653.479 319.833 653.833 321.062 654.188 C 322.271 654.479 323.479 654.771 324.688 655.062 C 325.875 655.292 327.062 655.521 328.250 655.750 C 329.417 655.917 330.583 656.083 331.750 656.250 C 332.979 656.375 334.208 656.500 335.438 656.625 C 336.729 656.708 338.021 656.792 339.312 656.875 C 340.667 656.917 342.021 656.958 343.375 657.000 C 344.792 657.000 346.208 657.000 347.625 657.000 C 349.042 656.938 350.458 656.875 351.875 656.812 C 353.292 656.688 354.708 656.562 356.125 656.438 C 357.542 656.250 358.958 656.062 360.375 655.875 C 361.792 655.625 363.208 655.375 364.625 655.125 C 366.104 654.750 367.583 654.375 369.062 654.000 C 370.604 653.500 372.146 653.000 373.688 652.500 C 375.292 651.875 376.896 651.250 378.500 650.625 C 380.167 649.875 381.833 649.125 383.500 648.375 C 384.917 647.688 386.333 647.000 387.750 646.312 C 388.917 645.688 390.083 645.062 391.250 644.438 C 392.167 643.875 393.083 643.312 394.000 642.750 C 394.667 642.250 395.333 641.750 396.000 641.250 C 396.771 640.583 397.542 639.917 398.312 639.250 C 399.188 638.417 400.062 637.583 400.938 636.750 C 401.917 635.750 402.896 634.750 403.875 633.750 C 404.958 632.583 406.042 631.417 407.125 630.250 C 408.042 629.208 408.958 628.167 409.875 627.125 C 410.625 626.208 411.375 625.292 412.125 624.375 C 412.708 623.583 413.292 622.792 413.875 622.000 C 414.292 621.333 414.708 620.667 415.125 620.000 C 415.500 619.229 415.875 618.458 416.250 617.688 C 416.583 616.812 416.917 615.938 417.250 615.062 C 417.542 614.083 417.833 613.104 418.125 612.125 C 418.375 611.042 418.625 609.958 418.875 608.875 C 419.062 607.667 419.250 606.458 419.438 605.250 C 419.562 603.917 419.688 602.583 419.812 601.250 C 419.875 599.792 419.938 598.333 420.000 596.875 C 420.000 595.292 420.000 593.708 420.000 592.125 C 419.938 590.604 419.875 589.083 419.812 587.562 C 419.688 586.104 419.562 584.646 419.438 583.188 C 419.250 581.792 419.062 580.396 418.875 579.000 C 418.625 577.667 418.375 576.333 418.125 575.000 C 417.812 573.729 417.500 572.458 417.188 571.188 C 416.812 569.979 416.438 568.771 416.062 567.562 C 415.625 566.417 415.188 565.271 414.750 564.125 C 414.250 563.042 413.750 561.958 413.250 560.875 C 412.688 559.792 412.125 558.708 411.562 557.625 C 410.938 556.542 410.312 555.458 409.688 554.375 C 409.000 553.292 408.312 552.208 407.625 551.125 C 406.875 550.042 406.125 548.958 405.375 547.875 C 404.417 546.708 403.458 545.542 402.500 544.375 C 401.333 543.125 400.167 541.875 399.000 540.625 C 397.625 539.292 396.250 537.958 394.875 536.625 C 393.292 535.208 391.708 533.792 390.125 532.375 C 388.667 531.167 387.208 529.958 385.750 528.750 C 384.417 527.750 383.083 526.750 381.750 525.750 C 380.542 524.958 379.333 524.167 378.125 523.375 C 377.042 522.792 375.958 522.208 374.875 521.625 C 373.812 521.104 372.750 520.583 371.688 520.062 C 370.646 519.604 369.604 519.146 368.562 518.688 C 367.542 518.292 366.521 517.896 365.500 517.500 C 364.500 517.167 363.500 516.833 362.500 516.500 C 361.438 516.208 360.375 515.917 359.312 515.625 C 358.188 515.375 357.062 515.125 355.938 514.875 C 354.750 514.667 353.562 514.458 352.375 514.250 C 351.125 514.083 349.875 513.917 348.625 513.750 C 347.208 513.625 345.792 513.500 344.375 513.375 C 342.792 513.292 341.208 513.208 339.625 513.125 C 337.875 513.083 336.125 513.042 334.375 513.000 C 332.458 513.000 330.542 513.000 328.625 513.000 C 326.938 513.042 325.250 513.083 323.562 513.125 C 322.104 513.208 320.646 513.292 319.188 513.375 C 317.958 513.500 316.729 513.625 315.500 513.750 C 314.500 513.917 313.500 514.083 312.500 514.250 C 311.458 514.500 310.417 514.750 309.375 515.000 C 308.292 515.333 307.208 515.667 306.125 516.000 C 305.000 516.417 303.875 516.833 302.750 517.250 C 301.583 517.750 300.417 518.250 299.250 518.750 C 298.021 519.438 296.792 520.125 295.562 520.812 C 294.271 521.688 292.979 522.562 291.688 523.438 Z" fill="rgb(245,245,245)" fill-rule="evenodd" stroke="rgb(134,134,134)" stroke-linecap="round" stroke-linejoin="round" stroke-width="7.0" /><path d="M 855.125 514.125 C 853.375 513.708 851.625 513.292 849.875 512.875 C 848.292 512.562 846.708 512.250 845.125 511.938 C 843.708 511.729 842.292 511.521 840.875 511.312 C 839.625 511.208 838.375 511.104 837.125 511.000 C 836.042 511.000 834.958 511.000 833.875 511.000 C 832.688 511.083 831.500 511.167 830.312 511.250 C 829.021 511.417 827.729 511.583 826.438 511.750 C 825.042 512.000 823.646 512.250 822.250 512.500 C 820.750 512.833 819.250 513.167 817.750 513.500 C 816.333 513.854 814.917 514.208 813.500 514.562 C 812.167 514.938 810.833 515.312 809.500 515.688 C 808.250 516.083 807.000 516.479 805.750 516.875 C 804.583 517.292 803.417 517.708 802.250 518.125 C 801.104 518.583 799.958 519.042 798.812 519.500 C 797.688 520.000 796.562 520.500 795.438 521.000 C 794.333 521.542 793.229 522.083 792.125 522.625 C 791.042 523.208 789.958 523.792 788.875 524.375 C 787.812 525.000 786.750 525.625 785.688 526.250 C 784.646 526.917 783.604 527.583 782.562 528.250 C 781.542 528.958 780.521 529.667 779.500 530.375 C 778.500 531.125 777.500 531.875 776.500 532.625 C 775.562 533.396 774.625 534.167 773.688 534.938 C 772.812 535.729 771.938 536.521 771.062 537.312 C 770.250 538.125 769.438 538.938 768.625 539.750 C 767.875 540.583 767.125 541.417 766.375 542.250 C 765.604 543.229 764.833 544.208 764.062 545.188 C 763.271 546.312 762.479 547.438 761.688 548.562 C 760.875 549.833 760.062 551.104 759.250 552.375 C 758.417 553.792 757.583 555.208 756.750 556.625 C 756.021 557.979 755.292 559.333 754.562 560.688 C 753.938 561.979 753.312 563.271 752.688 564.562 C 752.167 565.792 751.646 567.021 751.125 568.250 C 750.708 569.417 750.292 570.583 749.875 571.750 C 749.542 573.167 749.208 574.583 748.875 576.000 C 748.625 577.667 748.375 579.333 748.125 581.000 C 747.958 582.917 747.792 584.833 747.625 586.750 C 747.542 588.917 747.458 591.083 747.375 593.250 C 747.438 595.250 747.500 597.250 747.562 599.250 C 747.771 601.083 747.979 602.917 748.188 604.750 C 748.542 606.417 748.896 608.083 749.250 609.750 C 749.750 611.250 750.250 612.750 750.750 614.250 C 751.458 615.750 752.167 617.250 752.875 618.750 C 753.792 620.250 754.708 621.750 755.625 623.250 C 756.750 624.750 757.875 626.250 759.000 627.750 C 760.333 629.250 761.667 630.750 763.000 632.250 C 764.188 633.500 765.375 634.750 766.562 636.000 C 767.604 637.000 768.646 638.000 769.688 639.000 C 770.583 639.750 771.479 640.500 772.375 641.250 C 773.125 641.750 773.875 642.250 774.625 642.750 C 775.625 643.312 776.625 643.875 777.625 644.438 C 778.875 645.062 780.125 645.688 781.375 646.312 C 782.875 647.000 784.375 647.688 785.875 648.375 C 787.625 649.125 789.375 649.875 791.125 650.625 C 792.833 651.250 794.542 651.875 796.250 652.500 C 797.917 653.000 799.583 653.500 801.250 654.000 C 802.875 654.375 804.500 654.750 806.125 655.125 C 807.708 655.375 809.292 655.625 810.875 655.875 C 812.312 656.062 813.750 656.250 815.188 656.438 C 816.479 656.562 817.771 656.688 819.062 656.812 C 820.208 656.875 821.354 656.938 822.500 657.000 C 823.500 657.000 824.500 657.000 825.500 657.000 C 826.604 656.938 827.708 656.875 828.812 656.812 C 830.021 656.688 831.229 656.562 832.438 656.438 C 833.750 656.250 835.062 656.062 836.375 655.875 C 837.792 655.625 839.208 655.375 840.625 655.125 C 841.979 654.833 843.333 654.542 844.688 654.250 C 845.979 653.917 847.271 653.583 848.562 653.250 C 849.792 652.875 851.021 652.500 852.250 652.125 C 853.417 651.708 854.583 651.292 855.750 650.875 C 856.938 650.375 858.125 649.875 859.312 649.375 C 860.521 648.792 861.729 648.208 862.938 647.625 C 864.167 646.958 865.396 646.292 866.625 645.625 C 867.875 644.875 869.125 644.125 870.375 643.375 C 871.646 642.479 872.917 641.583 874.188 640.688 C 875.479 639.646 876.771 638.604 878.062 637.562 C 879.375 636.375 880.688 635.188 882.000 634.000 C 883.333 632.667 884.667 631.333 886.000 630.000 C 887.208 628.625 888.417 627.250 889.625 625.875 C 890.708 624.458 891.792 623.042 892.875 621.625 C 893.833 620.167 894.792 618.708 895.750 617.250 C 896.583 615.750 897.417 614.250 898.250 612.750 C 898.917 611.458 899.583 610.167 900.250 608.875 C 900.750 607.792 901.250 606.708 901.750 605.625 C 902.083 604.750 902.417 603.875 902.750 603.000 C 902.917 602.333 903.083 601.667 903.250 601.000 C 903.396 600.104 903.542 599.208 903.688 598.312 C 903.812 597.188 903.938 596.062 904.062 594.938 C 904.167 593.583 904.271 592.229 904.375 590.875 C 904.458 589.292 904.542 587.708 904.625 586.125 C 904.646 584.500 904.667 582.875 904.688 581.250 C 904.646 579.583 904.604 577.917 904.562 576.250 C 904.458 574.542 904.354 572.833 904.250 571.125 C 904.083 569.375 903.917 567.625 903.750 565.875 C 903.521 564.312 903.292 562.750 903.062 561.188 C 902.771 559.812 902.479 558.438 902.188 557.062 C 901.833 555.875 901.479 554.688 901.125 553.500 C 900.708 552.500 900.292 551.500 899.875 550.500 C 899.333 549.458 898.792 548.417 898.250 547.375 C 897.583 546.292 896.917 545.208 896.250 544.125 C 895.458 543.000 894.667 541.875 893.875 540.750 C 892.958 539.583 892.042 538.417 891.125 537.250 C 890.208 536.188 889.292 535.125 888.375 534.062 C 887.458 533.104 886.542 532.146 885.625 531.188 C 884.708 530.333 883.792 529.479 882.875 528.625 C 881.958 527.875 881.042 527.125 880.125 526.375 C 879.167 525.667 878.208 524.958 877.250 524.250 C 876.250 523.583 875.250 522.917 874.250 522.250 C 873.208 521.625 872.167 521.000 871.125 520.375 C 870.042 519.792 868.958 519.208 867.875 518.625 C 866.625 518.083 865.375 517.542 864.125 517.000 C 862.708 516.500 861.292 516.000 859.875 515.500 Z" fill="rgb(245,245,245)" fill-rule="evenodd" stroke="rgb(134,134,134)" stroke-linecap="round" stroke-linejoin="round" stroke-width="7.0" /></svg>